<svg width="215" height="48" viewBox="0 0 215 48" fill="none" xmlns="http://www.w3.org/2000/svg">
<path d="M0 2C0 0.895431 0.895431 0 2 0H213C214.105 0 215 0.895431 215 2V46C215 47.1046 214.105 48 213 48H2C0.895429 48 0 47.1046 0 46V2Z" fill="#73C04A"/>
<path d="M21.1172 30.5H22.6992V25.0068H28.3154V23.6006H22.6992V19.2412H28.8164V17.8174H21.1172V30.5ZM33.2109 30.667C34.4854 30.667 35.4785 30.1133 36.0762 29.1025H36.2168V30.5H37.7461V24.0137C37.7461 22.0449 36.4541 20.8584 34.1426 20.8584C32.1211 20.8584 30.6797 21.8604 30.4336 23.3457L30.4248 23.3984H31.9541L31.9629 23.3721C32.209 22.6338 32.9561 22.2119 34.0898 22.2119C35.5049 22.2119 36.2168 22.8447 36.2168 24.0137V24.875L33.501 25.042C31.2949 25.1738 30.0469 26.1494 30.0469 27.8369V27.8545C30.0469 29.5771 31.4092 30.667 33.2109 30.667ZM31.6113 27.8193V27.8018C31.6113 26.8613 32.2441 26.3516 33.6855 26.2637L36.2168 26.1055V26.9668C36.2168 28.3203 35.083 29.3398 33.5273 29.3398C32.4287 29.3398 31.6113 28.7773 31.6113 27.8193ZM40.3213 30.5H47.6162V29.2344H42.1494V29.0938L47.5898 22.1592V21.0254H40.3301V22.291H45.7881V22.4316L40.3213 29.3926V30.5ZM53.8477 30.667C56.0801 30.667 57.4336 29.4014 57.7588 28.1182L57.7764 28.0479H56.2471L56.2119 28.127C55.957 28.6982 55.166 29.3047 53.8828 29.3047C52.1953 29.3047 51.1143 28.1621 51.0703 26.2021H57.8906V25.6045C57.8906 22.7744 56.3262 20.8584 53.751 20.8584C51.1758 20.8584 49.5059 22.8623 49.5059 25.7891V25.7979C49.5059 28.7686 51.1406 30.667 53.8477 30.667ZM53.7422 22.2207C55.1396 22.2207 56.1768 23.1084 56.335 24.9805H51.0967C51.2637 23.1787 52.3359 22.2207 53.7422 22.2207ZM60.2637 30.5H61.793V24.6289C61.793 23.2402 62.8301 22.3174 64.2891 22.3174C64.623 22.3174 64.9131 22.3525 65.2295 22.4053V20.9199C65.0801 20.8936 64.7549 20.8584 64.4648 20.8584C63.1816 20.8584 62.2939 21.4385 61.9336 22.4316H61.793V21.0254H60.2637V30.5ZM76.0752 30.667C78.7734 30.667 80.4434 28.8037 80.4434 25.7715V25.7539C80.4434 22.7129 78.7734 20.8584 76.0752 20.8584C73.377 20.8584 71.707 22.7129 71.707 25.7539V25.7715C71.707 28.8037 73.377 30.667 76.0752 30.667ZM76.0752 29.3135C74.2822 29.3135 73.2715 28.0039 73.2715 25.7715V25.7539C73.2715 23.5127 74.2822 22.2119 76.0752 22.2119C77.8682 22.2119 78.8789 23.5127 78.8789 25.7539V25.7715C78.8789 28.0039 77.8682 29.3135 76.0752 29.3135ZM82.8164 30.5H84.3457V24.6289C84.3457 23.2402 85.3828 22.3174 86.8418 22.3174C87.1758 22.3174 87.4658 22.3525 87.7822 22.4053V20.9199C87.6328 20.8936 87.3076 20.8584 87.0176 20.8584C85.7344 20.8584 84.8467 21.4385 84.4863 22.4316H84.3457V21.0254H82.8164V30.5ZM93.0381 34.8418C94.2334 34.8418 95.3496 34.3496 95.3496 33.0488V33.0312C95.3496 32.0469 94.5938 31.4141 93.46 31.4141L94.0225 30.623C95.8418 30.3857 96.8789 29.252 97.2217 27.7314L97.2393 27.6348L95.7275 27.6436L95.71 27.6963C95.3584 28.751 94.5498 29.3135 93.2754 29.3135C91.5879 29.3135 90.498 27.916 90.498 25.7363V25.7188C90.498 23.583 91.5703 22.2119 93.2754 22.2119C94.6377 22.2119 95.4814 22.9678 95.7188 23.8994L95.7275 23.9258H97.248L97.2393 23.873C96.958 22.1855 95.5781 20.8584 93.2754 20.8584C90.6211 20.8584 88.9336 22.7744 88.9336 25.7188V25.7363C88.9336 28.54 90.4102 30.4033 92.7656 30.6406L92.1416 31.5723V32.3633H92.4668C93.4072 32.3633 93.8818 32.5127 93.8818 33.084V33.1016C93.8818 33.6113 93.293 33.7783 92.7568 33.7783C92.2383 33.7783 91.7812 33.6992 91.623 33.6641V34.6836C92.0801 34.7891 92.5547 34.8418 93.0381 34.8418ZM102.082 30.667C103.356 30.667 104.35 30.1133 104.947 29.1025H105.088V30.5H106.617V24.0137C106.617 22.0449 105.325 20.8584 103.014 20.8584C100.992 20.8584 99.5508 21.8604 99.3047 23.3457L99.2959 23.3984H100.825L100.834 23.3721C101.08 22.6338 101.827 22.2119 102.961 22.2119C104.376 22.2119 105.088 22.8447 105.088 24.0137V24.875L102.372 25.042C100.166 25.1738 98.918 26.1494 98.918 27.8369V27.8545C98.918 29.5771 100.28 30.667 102.082 30.667ZM100.482 27.8193V27.8018C100.482 26.8613 101.115 26.3516 102.557 26.2637L105.088 26.1055V26.9668C105.088 28.3203 103.954 29.3398 102.398 29.3398C101.3 29.3398 100.482 28.7773 100.482 27.8193ZM109.412 30.5H110.941V24.6289C110.941 23.293 111.882 22.2119 113.121 22.2119C114.316 22.2119 115.09 22.9414 115.09 24.0664V30.5H116.619V24.4092C116.619 23.2051 117.489 22.2119 118.808 22.2119C120.144 22.2119 120.785 22.9062 120.785 24.3037V30.5H122.314V23.9521C122.314 21.9658 121.233 20.8584 119.3 20.8584C117.99 20.8584 116.909 21.5176 116.399 22.5195H116.259C115.819 21.5352 114.923 20.8584 113.64 20.8584C112.4 20.8584 111.504 21.4473 111.082 22.4668H110.941V21.0254H109.412V30.5ZM128.941 30.667C131.174 30.667 132.527 29.4014 132.853 28.1182L132.87 28.0479H131.341L131.306 28.127C131.051 28.6982 130.26 29.3047 128.977 29.3047C127.289 29.3047 126.208 28.1621 126.164 26.2021H132.984V25.6045C132.984 22.7744 131.42 20.8584 128.845 20.8584C126.27 20.8584 124.6 22.8623 124.6 25.7891V25.7979C124.6 28.7686 126.234 30.667 128.941 30.667ZM128.836 22.2207C130.233 22.2207 131.271 23.1084 131.429 24.9805H126.19C126.357 23.1787 127.43 22.2207 128.836 22.2207ZM135.357 30.5H136.887V24.8926C136.887 23.2314 137.845 22.2119 139.356 22.2119C140.868 22.2119 141.571 23.0293 141.571 24.7344V30.5H143.101V24.3652C143.101 22.1152 141.914 20.8584 139.787 20.8584C138.39 20.8584 137.502 21.4473 137.027 22.4492H136.887V21.0254H135.357V30.5ZM149.235 30.5703C149.534 30.5703 149.824 30.5352 150.123 30.4824V29.1816C149.842 29.208 149.692 29.2168 149.42 29.2168C148.436 29.2168 148.049 28.7686 148.049 27.6523V22.291H150.123V21.0254H148.049V18.5732H146.467V21.0254H144.973V22.291H146.467V28.0391C146.467 29.8496 147.284 30.5703 149.235 30.5703ZM156.161 30.667C158.859 30.667 160.529 28.8037 160.529 25.7715V25.7539C160.529 22.7129 158.859 20.8584 156.161 20.8584C153.463 20.8584 151.793 22.7129 151.793 25.7539V25.7715C151.793 28.8037 153.463 30.667 156.161 30.667ZM156.161 29.3135C154.368 29.3135 153.357 28.0039 153.357 25.7715V25.7539C153.357 23.5127 154.368 22.2119 156.161 22.2119C157.954 22.2119 158.965 23.5127 158.965 25.7539V25.7715C158.965 28.0039 157.954 29.3135 156.161 29.3135Z" fill="#07192E"/>
<path d="M181.5 18V20H176.5V31H187.5V26H189.5V32C189.5 32.2652 189.395 32.5196 189.207 32.7071C189.02 32.8946 188.765 33 188.5 33H175.5C175.235 33 174.98 32.8946 174.793 32.7071C174.605 32.5196 174.5 32.2652 174.5 32V19C174.5 18.7348 174.605 18.4804 174.793 18.2929C174.98 18.1054 175.235 18 175.5 18H181.5ZM192.5 15V23H190.5V18.413L182.707 26.207L181.293 24.793L189.085 17H184.5V15H192.5Z" fill="#07192E"/>
</svg>
