<svg width="589" height="45" viewBox="0 0 589 45" fill="none" xmlns="http://www.w3.org/2000/svg">
<path d="M14.9297 36.7969C22.125 36.7969 27.4688 32.7891 28.5938 26.6016V26.5547H24.3281L24.2812 26.6016C23.2266 30.4922 19.6406 32.9062 14.9297 32.9062C8.41406 32.9062 4.33594 27.5859 4.33594 19.125V19.0781C4.33594 10.6172 8.41406 5.27344 14.9062 5.27344C19.5703 5.27344 23.1797 8.01562 24.3047 12.3516L24.3281 12.3984H28.5703L28.5938 12.3516C27.5859 5.85938 22.0312 1.38281 14.9062 1.38281C5.71875 1.38281 0 8.17969 0 19.0781V19.125C0 30 5.74219 36.7969 14.9297 36.7969ZM45.5391 36.4453C52.7344 36.4453 57.1875 31.4766 57.1875 23.3906V23.3438C57.1875 15.2344 52.7344 10.2891 45.5391 10.2891C38.3438 10.2891 33.8906 15.2344 33.8906 23.3438V23.3906C33.8906 31.4766 38.3438 36.4453 45.5391 36.4453ZM45.5391 32.8359C40.7578 32.8359 38.0625 29.3438 38.0625 23.3906V23.3438C38.0625 17.3672 40.7578 13.8984 45.5391 13.8984C50.3203 13.8984 53.0156 17.3672 53.0156 23.3438V23.3906C53.0156 29.3438 50.3203 32.8359 45.5391 32.8359ZM63.5156 36H67.5938V20.3438C67.5938 16.7812 70.1016 13.8984 73.4062 13.8984C76.5938 13.8984 78.6562 15.8438 78.6562 18.8438V36H82.7344V19.7578C82.7344 16.5469 85.0547 13.8984 88.5703 13.8984C92.1328 13.8984 93.8438 15.75 93.8438 19.4766V36H97.9219V18.5391C97.9219 13.2422 95.0391 10.2891 89.8828 10.2891C86.3906 10.2891 83.5078 12.0469 82.1484 14.7188H81.7734C80.6016 12.0938 78.2109 10.2891 74.7891 10.2891C71.4844 10.2891 69.0938 11.8594 67.9688 14.5781H67.5938V10.7344H63.5156V36ZM115.664 36.4453C122.859 36.4453 127.312 31.4766 127.312 23.3906V23.3438C127.312 15.2344 122.859 10.2891 115.664 10.2891C108.469 10.2891 104.016 15.2344 104.016 23.3438V23.3906C104.016 31.4766 108.469 36.4453 115.664 36.4453ZM115.664 32.8359C110.883 32.8359 108.188 29.3438 108.188 23.3906V23.3438C108.188 17.3672 110.883 13.8984 115.664 13.8984C120.445 13.8984 123.141 17.3672 123.141 23.3438V23.3906C123.141 29.3438 120.445 32.8359 115.664 32.8359ZM147.141 44.4375H151.219V32.0156H151.594C152.977 34.7109 156 36.4453 159.469 36.4453C165.891 36.4453 170.062 31.3125 170.062 23.3906V23.3438C170.062 15.4688 165.867 10.2891 159.469 10.2891C155.953 10.2891 153.141 11.9531 151.594 14.7656H151.219V10.7344H147.141V44.4375ZM158.531 32.8359C153.938 32.8359 151.125 29.2266 151.125 23.3906V23.3438C151.125 17.5078 153.938 13.8984 158.531 13.8984C163.148 13.8984 165.891 17.4609 165.891 23.3438V23.3906C165.891 29.2734 163.148 32.8359 158.531 32.8359ZM186.82 36.4453C194.016 36.4453 198.469 31.4766 198.469 23.3906V23.3438C198.469 15.2344 194.016 10.2891 186.82 10.2891C179.625 10.2891 175.172 15.2344 175.172 23.3438V23.3906C175.172 31.4766 179.625 36.4453 186.82 36.4453ZM186.82 32.8359C182.039 32.8359 179.344 29.3438 179.344 23.3906V23.3438C179.344 17.3672 182.039 13.8984 186.82 13.8984C191.602 13.8984 194.297 17.3672 194.297 23.3438V23.3906C194.297 29.3438 191.602 32.8359 186.82 32.8359ZM214.125 36.4453C217.641 36.4453 220.453 34.7812 222 31.9688H222.375V36H226.453V0.703125H222.375V14.7188H222C220.617 12.0234 217.594 10.2891 214.125 10.2891C207.703 10.2891 203.531 15.4219 203.531 23.3438V23.3906C203.531 31.2656 207.727 36.4453 214.125 36.4453ZM215.062 32.8359C210.445 32.8359 207.703 29.2734 207.703 23.3906V23.3438C207.703 17.4609 210.445 13.8984 215.062 13.8984C219.656 13.8984 222.469 17.5078 222.469 23.3438V23.3906C222.469 29.2266 219.656 32.8359 215.062 32.8359ZM244.594 36.4453C250.547 36.4453 254.156 33.0703 255.023 29.6484L255.07 29.4609H250.992L250.898 29.6719C250.219 31.1953 248.109 32.8125 244.688 32.8125C240.188 32.8125 237.305 29.7656 237.188 24.5391H255.375V22.9453C255.375 15.3984 251.203 10.2891 244.336 10.2891C237.469 10.2891 233.016 15.6328 233.016 23.4375V23.4609C233.016 31.3828 237.375 36.4453 244.594 36.4453ZM244.312 13.9219C248.039 13.9219 250.805 16.2891 251.227 21.2812H237.258C237.703 16.4766 240.562 13.9219 244.312 13.9219ZM261.703 36H265.781V20.3438C265.781 16.7812 268.289 13.8984 271.594 13.8984C274.781 13.8984 276.844 15.8438 276.844 18.8438V36H280.922V19.7578C280.922 16.5469 283.242 13.8984 286.758 13.8984C290.32 13.8984 292.031 15.75 292.031 19.4766V36H296.109V18.5391C296.109 13.2422 293.227 10.2891 288.07 10.2891C284.578 10.2891 281.695 12.0469 280.336 14.7188H279.961C278.789 12.0938 276.398 10.2891 272.977 10.2891C269.672 10.2891 267.281 11.8594 266.156 14.5781H265.781V10.7344H261.703V36ZM313.852 36.4453C321.047 36.4453 325.5 31.4766 325.5 23.3906V23.3438C325.5 15.2344 321.047 10.2891 313.852 10.2891C306.656 10.2891 302.203 15.2344 302.203 23.3438V23.3906C302.203 31.4766 306.656 36.4453 313.852 36.4453ZM313.852 32.8359C309.07 32.8359 306.375 29.3438 306.375 23.3906V23.3438C306.375 17.3672 309.07 13.8984 313.852 13.8984C318.633 13.8984 321.328 17.3672 321.328 23.3438V23.3906C321.328 29.3438 318.633 32.8359 313.852 32.8359ZM340.5 36.4453C346.242 36.4453 350.625 33.3281 350.625 28.8281V28.7812C350.625 25.1719 348.328 23.1094 343.57 21.9609L339.68 21.0234C336.703 20.2969 335.438 19.2188 335.438 17.5078V17.4609C335.438 15.2344 337.641 13.6875 340.641 13.6875C343.688 13.6875 345.656 15.0703 346.195 17.0625H350.203C349.641 12.9375 345.961 10.2891 340.664 10.2891C335.297 10.2891 331.266 13.4531 331.266 17.6484V17.6719C331.266 21.3047 333.398 23.3672 338.133 24.4922L342.047 25.4297C345.164 26.1797 346.453 27.375 346.453 29.0859V29.1328C346.453 31.4297 344.039 33.0469 340.641 33.0469C337.406 33.0469 335.391 31.6641 334.711 29.5547H330.539C331.008 33.7266 334.875 36.4453 340.5 36.4453ZM379.43 36.1875C380.227 36.1875 381 36.0938 381.797 35.9531V32.4844C381.047 32.5547 380.648 32.5781 379.922 32.5781C377.297 32.5781 376.266 31.3828 376.266 28.4062V14.1094H381.797V10.7344H376.266V4.19531H372.047V10.7344H368.062V14.1094H372.047V29.4375C372.047 34.2656 374.227 36.1875 379.43 36.1875ZM397.828 36.4453C403.781 36.4453 407.391 33.0703 408.258 29.6484L408.305 29.4609H404.227L404.133 29.6719C403.453 31.1953 401.344 32.8125 397.922 32.8125C393.422 32.8125 390.539 29.7656 390.422 24.5391H408.609V22.9453C408.609 15.3984 404.438 10.2891 397.57 10.2891C390.703 10.2891 386.25 15.6328 386.25 23.4375V23.4609C386.25 31.3828 390.609 36.4453 397.828 36.4453ZM397.547 13.9219C401.273 13.9219 404.039 16.2891 404.461 21.2812H390.492C390.938 16.4766 393.797 13.9219 397.547 13.9219ZM435.375 36.4453C438.773 36.4453 441.422 34.9688 443.016 32.2734H443.391V36H447.469V18.7031C447.469 13.4531 444.023 10.2891 437.859 10.2891C432.469 10.2891 428.625 12.9609 427.969 16.9219L427.945 17.0625H432.023L432.047 16.9922C432.703 15.0234 434.695 13.8984 437.719 13.8984C441.492 13.8984 443.391 15.5859 443.391 18.7031V21L436.148 21.4453C430.266 21.7969 426.938 24.3984 426.938 28.8984V28.9453C426.938 33.5391 430.57 36.4453 435.375 36.4453ZM431.109 28.8516V28.8047C431.109 26.2969 432.797 24.9375 436.641 24.7031L443.391 24.2812V26.5781C443.391 30.1875 440.367 32.9062 436.219 32.9062C433.289 32.9062 431.109 31.4062 431.109 28.8516ZM457.031 5.85938C458.578 5.85938 459.844 4.59375 459.844 3.04688C459.844 1.5 458.578 0.234375 457.031 0.234375C455.484 0.234375 454.219 1.5 454.219 3.04688C454.219 4.59375 455.484 5.85938 457.031 5.85938ZM451.312 44.6719C456.609 44.6719 459.07 42.4453 459.07 37.2422V10.7344H454.992V37.3125C454.992 40.1016 453.961 41.0625 451.219 41.0625H450.609V44.6719H451.312ZM475.242 36.4453C478.945 36.4453 481.5 34.9219 482.742 32.2266H483.117V36H487.195V10.7344H483.117V25.6875C483.117 30.1172 480.75 32.8359 476.297 32.8359C472.266 32.8359 470.625 30.6562 470.625 26.1094V10.7344H466.547V27.0938C466.547 33.0703 469.5 36.4453 475.242 36.4453ZM504.141 36.4453C507.656 36.4453 510.469 34.7812 512.016 31.9688H512.391V36H516.469V0.703125H512.391V14.7188H512.016C510.633 12.0234 507.609 10.2891 504.141 10.2891C497.719 10.2891 493.547 15.4219 493.547 23.3438V23.3906C493.547 31.2656 497.742 36.4453 504.141 36.4453ZM505.078 32.8359C500.461 32.8359 497.719 29.2734 497.719 23.3906V23.3438C497.719 17.4609 500.461 13.8984 505.078 13.8984C509.672 13.8984 512.484 17.5078 512.484 23.3438V23.3906C512.484 29.2266 509.672 32.8359 505.078 32.8359ZM531.234 36.4453C534.633 36.4453 537.281 34.9688 538.875 32.2734H539.25V36H543.328V18.7031C543.328 13.4531 539.883 10.2891 533.719 10.2891C528.328 10.2891 524.484 12.9609 523.828 16.9219L523.805 17.0625H527.883L527.906 16.9922C528.562 15.0234 530.555 13.8984 533.578 13.8984C537.352 13.8984 539.25 15.5859 539.25 18.7031V21L532.008 21.4453C526.125 21.7969 522.797 24.3984 522.797 28.8984V28.9453C522.797 33.5391 526.43 36.4453 531.234 36.4453ZM526.969 28.8516V28.8047C526.969 26.2969 528.656 24.9375 532.5 24.7031L539.25 24.2812V26.5781C539.25 30.1875 536.227 32.9062 532.078 32.9062C529.148 32.9062 526.969 31.4062 526.969 28.8516ZM550.781 36H554.859V20.3438C554.859 16.6406 557.625 14.1797 561.516 14.1797C562.406 14.1797 563.18 14.2734 564.023 14.4141V10.4531C563.625 10.3828 562.758 10.2891 561.984 10.2891C558.562 10.2891 556.195 11.8359 555.234 14.4844H554.859V10.7344H550.781V36ZM575.414 25.5469H579.516V24.0234C579.516 21.5625 580.359 20.25 583.336 18.4922C586.336 16.6875 588.234 14.0859 588.234 10.4297V10.3828C588.234 5.57812 584.203 1.92188 578.297 1.92188C571.711 1.92188 568.336 5.95312 568.078 10.9922V11.0391L572.062 11.0156L572.109 10.9922C572.344 7.66406 574.594 5.57812 578.133 5.57812C581.625 5.57812 583.875 7.71094 583.875 10.5938V10.6406C583.875 13.125 582.82 14.6016 580.102 16.2656C576.891 18.1875 575.391 20.2969 575.414 23.3906V25.5469ZM577.781 36.4219C579.68 36.4219 581.016 35.0625 581.016 33.1641C581.016 31.2422 579.68 29.8828 577.781 29.8828C575.883 29.8828 574.523 31.2422 574.523 33.1641C574.523 35.0625 575.883 36.4219 577.781 36.4219Z" fill="#07192E"/>
</svg>
