<svg width="304" height="24" viewBox="0 0 304 24" fill="none" xmlns="http://www.w3.org/2000/svg">
<path d="M0.820312 19H3.57422L5.10938 14.4297H11.5781L13.1016 19H15.8672L9.76172 2.08984H6.92578L0.820312 19ZM8.23828 5.05469H8.4375L10.875 12.3203H5.8125L8.23828 5.05469ZM19.8398 4C20.707 4 21.4336 3.28516 21.4336 2.41797C21.4336 1.53906 20.707 0.824219 19.8398 0.824219C18.9609 0.824219 18.2461 1.53906 18.2461 2.41797C18.2461 3.28516 18.9609 4 19.8398 4ZM18.5625 19H21.0938V6.27344H18.5625V19ZM24.7969 19H27.3398V11.5352C27.3398 9.48438 28.5 8.20703 30.3633 8.20703C32.2266 8.20703 33.1055 9.25 33.1055 11.3594V19H35.6367V10.7617C35.6367 7.72656 34.0664 6.02734 31.2188 6.02734C29.3672 6.02734 28.1484 6.84766 27.5273 8.20703H27.3398V6.27344H24.7969V19ZM43.8281 19.2109C45.6094 19.2109 47.0039 18.3906 47.7422 16.9961H47.9414V19H50.4727V1.28125H47.9414V8.28906H47.7422C47.0625 6.91797 45.5742 6.05078 43.8281 6.05078C40.5938 6.05078 38.5547 8.59375 38.5547 12.625V12.6484C38.5547 16.6445 40.6289 19.2109 43.8281 19.2109ZM44.5547 17.043C42.4219 17.043 41.1445 15.3789 41.1445 12.6484V12.625C41.1445 9.89453 42.4219 8.23047 44.5547 8.23047C46.6641 8.23047 47.9766 9.90625 47.9766 12.625V12.6484C47.9766 15.3672 46.6758 17.043 44.5547 17.043ZM57.75 19.2109C59.4375 19.2109 60.7734 18.4844 61.5234 17.1953H61.7227V19H64.2422V10.293C64.2422 7.62109 62.4375 6.02734 59.2383 6.02734C56.3438 6.02734 54.3398 7.42188 54.0352 9.50781L54.0234 9.58984H56.4727L56.4844 9.54297C56.7891 8.64062 57.7148 8.125 59.1211 8.125C60.8438 8.125 61.7227 8.89844 61.7227 10.293V11.418L58.2773 11.6172C55.2422 11.8047 53.5312 13.1289 53.5312 15.4023V15.4258C53.5312 17.7344 55.3242 19.2109 57.75 19.2109ZM56.0625 15.3203V15.2969C56.0625 14.1484 56.8594 13.5156 58.6172 13.4102L61.7227 13.2109V14.3008C61.7227 15.9414 60.3281 17.1836 58.4297 17.1836C57.0586 17.1836 56.0625 16.4922 56.0625 15.3203ZM79.1953 19.082C79.6875 19.082 80.1562 19.0234 80.5664 18.9531V16.9258C80.2148 16.9609 79.9922 16.9727 79.6055 16.9727C78.3516 16.9727 77.8359 16.4102 77.8359 15.0391V8.27734H80.5664V6.27344H77.8359V3.0625H75.2461V6.27344H73.2539V8.27734H75.2461V15.6484C75.2461 18.0977 76.3945 19.082 79.1953 19.082ZM88.7344 19.2461C91.9922 19.2461 93.75 17.3711 94.1719 15.6953L94.1953 15.5898L91.7461 15.6016L91.6992 15.6953C91.3945 16.3516 90.4219 17.1602 88.793 17.1602C86.6953 17.1602 85.3594 15.7422 85.3125 13.3047H94.3359V12.4141C94.3359 8.59375 92.1562 6.02734 88.6055 6.02734C85.0547 6.02734 82.7578 8.6875 82.7578 12.6602V12.6719C82.7578 16.7031 85.0078 19.2461 88.7344 19.2461ZM88.6172 8.11328C90.3398 8.11328 91.6172 9.21484 91.8164 11.4883H85.3477C85.5703 9.29688 86.8828 8.11328 88.6172 8.11328ZM97.3594 19H99.9023V11.1836C99.9023 9.51953 101.039 8.20703 102.574 8.20703C104.074 8.20703 105.023 9.12109 105.023 10.5742V19H107.555V10.9492C107.555 9.41406 108.621 8.20703 110.238 8.20703C111.902 8.20703 112.699 9.07422 112.699 10.832V19H115.23V10.2227C115.23 7.57422 113.73 6.02734 111.164 6.02734C109.395 6.02734 107.93 6.92969 107.285 8.30078H107.086C106.523 6.92969 105.293 6.02734 103.559 6.02734C101.895 6.02734 100.652 6.83594 100.09 8.23047H99.9023V6.27344H97.3594V19ZM128.836 19.2109C130.523 19.2109 131.859 18.4844 132.609 17.1953H132.809V19H135.328V10.293C135.328 7.62109 133.523 6.02734 130.324 6.02734C127.43 6.02734 125.426 7.42188 125.121 9.50781L125.109 9.58984H127.559L127.57 9.54297C127.875 8.64062 128.801 8.125 130.207 8.125C131.93 8.125 132.809 8.89844 132.809 10.293V11.418L129.363 11.6172C126.328 11.8047 124.617 13.1289 124.617 15.4023V15.4258C124.617 17.7344 126.41 19.2109 128.836 19.2109ZM127.148 15.3203V15.2969C127.148 14.1484 127.945 13.5156 129.703 13.4102L132.809 13.2109V14.3008C132.809 15.9414 131.414 17.1836 129.516 17.1836C128.145 17.1836 127.148 16.4922 127.148 15.3203ZM139.031 19H141.574V1.28125H139.031V19ZM150.738 23.4883C154.348 23.4883 156.633 21.6367 156.633 18.7422V6.27344H154.102V8.35938H153.949C153.211 6.92969 151.828 6.05078 150.047 6.05078C146.742 6.05078 144.715 8.61719 144.715 12.25V12.2734C144.715 15.8594 146.73 18.3789 150 18.3789C151.746 18.3789 153.152 17.6055 153.926 16.2227H154.113V18.7305C154.113 20.4648 152.871 21.4492 150.773 21.4492C149.051 21.4492 148.02 20.8281 147.809 19.9492L147.797 19.9258H145.23L145.207 19.9492C145.512 22.0703 147.504 23.4883 150.738 23.4883ZM150.703 16.2812C148.535 16.2812 147.316 14.6289 147.316 12.2617V12.2383C147.316 9.87109 148.535 8.20703 150.703 8.20703C152.848 8.20703 154.16 9.87109 154.16 12.2383V12.2617C154.16 14.6406 152.859 16.2812 150.703 16.2812ZM164.531 19.2461C166.383 19.2461 167.672 18.4492 168.281 17.0781H168.48V19H171.012V6.27344H168.48V13.7383C168.48 15.7891 167.391 17.0664 165.352 17.0664C163.488 17.0664 162.715 16.0234 162.715 13.9141V6.27344H160.172V14.5117C160.172 17.5234 161.66 19.2461 164.531 19.2461ZM174.68 19H177.223V11.1836C177.223 9.51953 178.359 8.20703 179.895 8.20703C181.395 8.20703 182.344 9.12109 182.344 10.5742V19H184.875V10.9492C184.875 9.41406 185.941 8.20703 187.559 8.20703C189.223 8.20703 190.02 9.07422 190.02 10.832V19H192.551V10.2227C192.551 7.57422 191.051 6.02734 188.484 6.02734C186.715 6.02734 185.25 6.92969 184.605 8.30078H184.406C183.844 6.92969 182.613 6.02734 180.879 6.02734C179.215 6.02734 177.973 6.83594 177.41 8.23047H177.223V6.27344H174.68V19ZM199.594 19.2109C201.281 19.2109 202.617 18.4844 203.367 17.1953H203.566V19H206.086V10.293C206.086 7.62109 204.281 6.02734 201.082 6.02734C198.188 6.02734 196.184 7.42188 195.879 9.50781L195.867 9.58984H198.316L198.328 9.54297C198.633 8.64062 199.559 8.125 200.965 8.125C202.688 8.125 203.566 8.89844 203.566 10.293V11.418L200.121 11.6172C197.086 11.8047 195.375 13.1289 195.375 15.4023V15.4258C195.375 17.7344 197.168 19.2109 199.594 19.2109ZM197.906 15.3203V15.2969C197.906 14.1484 198.703 13.5156 200.461 13.4102L203.566 13.2109V14.3008C203.566 15.9414 202.172 17.1836 200.273 17.1836C198.902 17.1836 197.906 16.4922 197.906 15.3203ZM220.875 19.2109C222.656 19.2109 224.051 18.3906 224.789 16.9961H224.988V19H227.52V1.28125H224.988V8.28906H224.789C224.109 6.91797 222.621 6.05078 220.875 6.05078C217.641 6.05078 215.602 8.59375 215.602 12.625V12.6484C215.602 16.6445 217.676 19.2109 220.875 19.2109ZM221.602 17.043C219.469 17.043 218.191 15.3789 218.191 12.6484V12.625C218.191 9.89453 219.469 8.23047 221.602 8.23047C223.711 8.23047 225.023 9.90625 225.023 12.625V12.6484C225.023 15.3672 223.723 17.043 221.602 17.043ZM237.445 4.51562L240.211 0.484375H237.504L235.441 4.51562H237.445ZM235.547 19.2461C237.398 19.2461 238.688 18.4492 239.297 17.0781H239.496V19H242.027V6.27344H239.496V13.7383C239.496 15.7891 238.406 17.0664 236.367 17.0664C234.504 17.0664 233.73 16.0234 233.73 13.9141V6.27344H231.188V14.5117C231.188 17.5234 232.676 19.2461 235.547 19.2461ZM249.199 19H251.906L256.5 6.27344H253.828L250.664 16.4219H250.465L247.289 6.27344H244.594L249.199 19ZM260.379 4C261.246 4 261.973 3.28516 261.973 2.41797C261.973 1.53906 261.246 0.824219 260.379 0.824219C259.5 0.824219 258.785 1.53906 258.785 2.41797C258.785 3.28516 259.5 4 260.379 4ZM259.102 19H261.633V6.27344H259.102V19ZM269.977 19.2109C271.758 19.2109 273.152 18.3906 273.891 16.9961H274.09V19H276.621V1.28125H274.09V8.28906H273.891C273.211 6.91797 271.723 6.05078 269.977 6.05078C266.742 6.05078 264.703 8.59375 264.703 12.625V12.6484C264.703 16.6445 266.777 19.2109 269.977 19.2109ZM270.703 17.043C268.57 17.043 267.293 15.3789 267.293 12.6484V12.625C267.293 9.89453 268.57 8.23047 270.703 8.23047C272.812 8.23047 274.125 9.90625 274.125 12.625V12.6484C274.125 15.3672 272.824 17.043 270.703 17.043ZM283.898 19.2109C285.586 19.2109 286.922 18.4844 287.672 17.1953H287.871V19H290.391V10.293C290.391 7.62109 288.586 6.02734 285.387 6.02734C282.492 6.02734 280.488 7.42188 280.184 9.50781L280.172 9.58984H282.621L282.633 9.54297C282.938 8.64062 283.863 8.125 285.27 8.125C286.992 8.125 287.871 8.89844 287.871 10.293V11.418L284.426 11.6172C281.391 11.8047 279.68 13.1289 279.68 15.4023V15.4258C279.68 17.7344 281.473 19.2109 283.898 19.2109ZM282.211 15.3203V15.2969C282.211 14.1484 283.008 13.5156 284.766 13.4102L287.871 13.2109V14.3008C287.871 15.9414 286.477 17.1836 284.578 17.1836C283.207 17.1836 282.211 16.4922 282.211 15.3203ZM296.742 13.75H299.168V13.0352C299.168 11.8281 299.602 11.207 301.113 10.3164C302.66 9.39062 303.574 8.11328 303.574 6.30859V6.28516C303.574 3.78906 301.488 1.94922 298.395 1.94922C294.996 1.94922 293.18 3.96484 293.074 6.61328V6.63672L295.488 6.625H295.512C295.605 5.07812 296.648 4.10547 298.266 4.10547C299.871 4.10547 300.914 5.07812 300.914 6.39062V6.41406C300.914 7.60938 300.41 8.28906 298.992 9.14453C297.387 10.1055 296.672 11.1602 296.73 12.8125L296.742 13.75ZM298.102 19.2578C299.18 19.2578 299.906 18.5547 299.906 17.5117C299.906 16.457 299.18 15.7539 298.102 15.7539C297.023 15.7539 296.285 16.457 296.285 17.5117C296.285 18.5547 297.023 19.2578 298.102 19.2578Z" fill="#07192E"/>
</svg>
