<svg width="38" height="13" viewBox="0 0 38 13" fill="none" xmlns="http://www.w3.org/2000/svg">
<path d="M0.4375 12H7.42188V10.7344H1.84375V6.85938H7.13281V5.60938H1.84375V1.99219H7.42188V0.726562H0.4375V12ZM9.79688 12H11.1562V6.78125C11.1562 5.59375 11.9922 4.63281 13.0938 4.63281C14.1562 4.63281 14.8438 5.28125 14.8438 6.28125V12H16.2031V6.58594C16.2031 5.51562 16.9766 4.63281 18.1484 4.63281C19.3359 4.63281 19.9062 5.25 19.9062 6.49219V12H21.2656V6.17969C21.2656 4.41406 20.3047 3.42969 18.5859 3.42969C17.4219 3.42969 16.4609 4.01562 16.0078 4.90625H15.8828C15.4922 4.03125 14.6953 3.42969 13.5547 3.42969C12.4531 3.42969 11.6562 3.95312 11.2812 4.85938H11.1562V3.57812H9.79688V12ZM26.0312 12.1484C27.1641 12.1484 28.0469 11.6562 28.5781 10.7578H28.7031V12H30.0625V6.23438C30.0625 4.48438 28.9141 3.42969 26.8594 3.42969C25.0625 3.42969 23.7812 4.32031 23.5625 5.64062L23.5547 5.6875H24.9141L24.9219 5.66406C25.1406 5.00781 25.8047 4.63281 26.8125 4.63281C28.0703 4.63281 28.7031 5.19531 28.7031 6.23438V7L26.2891 7.14844C24.3281 7.26562 23.2188 8.13281 23.2188 9.63281V9.64844C23.2188 11.1797 24.4297 12.1484 26.0312 12.1484ZM24.6094 9.61719V9.60156C24.6094 8.76562 25.1719 8.3125 26.4531 8.23438L28.7031 8.09375V8.85938C28.7031 10.0625 27.6953 10.9688 26.3125 10.9688C25.3359 10.9688 24.6094 10.4688 24.6094 9.61719ZM33.2656 1.95312C33.7812 1.95312 34.2031 1.53125 34.2031 1.01562C34.2031 0.5 33.7812 0.078125 33.2656 0.078125C32.75 0.078125 32.3281 0.5 32.3281 1.01562C32.3281 1.53125 32.75 1.95312 33.2656 1.95312ZM32.5781 12H33.9375V3.57812H32.5781V12ZM36.5781 12H37.9375V0.234375H36.5781V12Z" fill="#383D43"/>
</svg>
