<svg width="125" height="35" viewBox="0 0 125 35" fill="none" xmlns="http://www.w3.org/2000/svg">
<path d="M40.4375 23H47.4219V21.7344H41.8438V17.8594H47.1328V16.6094H41.8438V12.9922H47.4219V11.7266H40.4375V23ZM49.7969 23H51.1562V18.0156C51.1562 16.5391 52.0078 15.6328 53.3516 15.6328C54.6953 15.6328 55.3203 16.3594 55.3203 17.875V23H56.6797V17.5469C56.6797 15.5469 55.625 14.4297 53.7344 14.4297C52.4922 14.4297 51.7031 14.9531 51.2812 15.8438H51.1562V14.5781H49.7969V23ZM61.2109 23H62.5859L65.7031 14.5781H64.2656L61.9609 21.5156H61.8359L59.5312 14.5781H58.0938L61.2109 23ZM68.2188 12.9531C68.7344 12.9531 69.1562 12.5312 69.1562 12.0156C69.1562 11.5 68.7344 11.0781 68.2188 11.0781C67.7031 11.0781 67.2812 11.5 67.2812 12.0156C67.2812 12.5312 67.7031 12.9531 68.2188 12.9531ZM67.5312 23H68.8906V14.5781H67.5312V23ZM73.7656 23.1484C74.8984 23.1484 75.7812 22.6562 76.3125 21.7578H76.4375V23H77.7969V17.2344C77.7969 15.4844 76.6484 14.4297 74.5938 14.4297C72.7969 14.4297 71.5156 15.3203 71.2969 16.6406L71.2891 16.6875H72.6484L72.6562 16.6641C72.875 16.0078 73.5391 15.6328 74.5469 15.6328C75.8047 15.6328 76.4375 16.1953 76.4375 17.2344V18L74.0234 18.1484C72.0625 18.2656 70.9531 19.1328 70.9531 20.6328V20.6484C70.9531 22.1797 72.1641 23.1484 73.7656 23.1484ZM72.3438 20.6172V20.6016C72.3438 19.7656 72.9062 19.3125 74.1875 19.2344L76.4375 19.0938V19.8594C76.4375 21.0625 75.4297 21.9688 74.0469 21.9688C73.0703 21.9688 72.3438 21.4688 72.3438 20.6172ZM80.2812 23H81.6406V17.7812C81.6406 16.5469 82.5625 15.7266 83.8594 15.7266C84.1562 15.7266 84.4141 15.7578 84.6953 15.8047V14.4844C84.5625 14.4609 84.2734 14.4297 84.0156 14.4297C82.875 14.4297 82.0859 14.9453 81.7656 15.8281H81.6406V14.5781H80.2812V23Z" fill="#07192E"/>
<rect x="0.5" y="0.5" width="124" height="34" rx="1.5" stroke="#07192E"/>
</svg>
