<svg width="397" height="287" viewBox="0 0 397 287" fill="none" xmlns="http://www.w3.org/2000/svg">
<path d="M56.8401 349.076C61.5986 354.662 66.8457 359.812 72.5188 364.464C65.1946 381.825 47.7016 392.076 29.9622 396.069C27.7224 397.594 27.7224 399.77 29.3799 402.327C45.9321 420.047 103.787 413.049 109.901 384.382C153.869 400.084 266.218 401.385 300.286 384.921C373.707 357.263 416.891 280.281 387.885 202.49C378.349 175.192 362.185 150.695 340.849 131.205V124.476C359.887 66.7162 327.544 21.1141 271.549 21.1141C264.27 24.2096 262.59 29.5257 263.822 36.0756C275.379 54.2894 275.76 73.9613 270.16 96.0109C255.602 106.352 233.338 107.967 213.314 104.108C205.743 106.464 203.436 111.645 203.839 118.307C225.006 171.154 281.404 179.97 316.838 154.197C323.826 152.133 330.882 155.206 332.136 160.253C344.074 202.131 320.444 254.889 272.781 266.104C246.306 272.475 222.564 273.484 201.846 268.594C152.279 249.864 133.867 209.556 151.271 161.554C189.594 104.221 208.745 67.0077 196.784 34.7297C175.394 -12.106 121.795 -8.62918 96.4177 27.5967C94.7968 30.037 92.304 31.7628 89.4518 32.4193L78.6559 32.0829C66.1577 30.4678 55.5409 28.6435 46.8056 26.6097C39.7726 27.5294 36.7265 32.2847 36.8608 40.0683C42.0124 52.2931 48.1944 62.4992 56.0113 69.4752C68.7421 79.8792 82.3092 89.2122 96.5744 97.3791C101.233 100.721 101.659 105.925 99.3294 112.341C93.9762 131.025 83.0459 146.772 68.7111 160.679C37.1744 196.681 26.1546 235.374 28.6408 275.839C29.5591 300.76 31.4629 335.819 24.6539 343.872C19.1161 350.822 11.5533 355.871 3.01723 358.318C-1.4624 360.359 -0.52168 363.23 3.01723 366.55C20.3534 376.038 39.2575 374.288 52.786 358.834C54.6559 355.822 56.0251 352.527 56.8401 349.076Z" fill="#07192E"/>
</svg>
