<svg width="332" height="24" viewBox="0 0 332 24" fill="none" xmlns="http://www.w3.org/2000/svg">
<path d="M6.07031 19.4102C9.38672 19.4102 11.3438 17.4531 11.3438 14.125V2.08984H8.71875V14.1016C8.71875 16.0234 7.78125 17.0664 6.04688 17.0664C4.47656 17.0664 3.66797 16.0586 3.5625 14.7695L3.55078 14.6641H0.960938L0.972656 14.8047C1.11328 17.5 2.94141 19.4102 6.07031 19.4102ZM21.0469 4.51562L23.8008 0.484375H21.0938L19.043 4.51562H21.0469ZM18.7031 19.2109C20.3906 19.2109 21.7266 18.4844 22.4766 17.1953H22.6758V19H25.1953V10.293C25.1953 7.62109 23.3906 6.02734 20.1914 6.02734C17.2969 6.02734 15.293 7.42188 14.9883 9.50781L14.9766 9.58984H17.4258L17.4375 9.54297C17.7422 8.64062 18.668 8.125 20.0742 8.125C21.7969 8.125 22.6758 8.89844 22.6758 10.293V11.418L19.2305 11.6172C16.1953 11.8047 14.4844 13.1289 14.4844 15.4023V15.4258C14.4844 17.7344 16.2773 19.2109 18.7031 19.2109ZM17.0156 15.3203V15.2969C17.0156 14.1484 17.8125 13.5156 19.5703 13.4102L22.6758 13.2109V14.3008C22.6758 15.9414 21.2812 17.1836 19.3828 17.1836C18.0117 17.1836 17.0156 16.4922 17.0156 15.3203ZM40.1484 19.082C40.6406 19.082 41.1094 19.0234 41.5195 18.9531V16.9258C41.168 16.9609 40.9453 16.9727 40.5586 16.9727C39.3047 16.9727 38.7891 16.4102 38.7891 15.0391V8.27734H41.5195V6.27344H38.7891V3.0625H36.1992V6.27344H34.207V8.27734H36.1992V15.6484C36.1992 18.0977 37.3477 19.082 40.1484 19.082ZM49.6875 19.2461C52.9453 19.2461 54.7031 17.3711 55.125 15.6953L55.1484 15.5898L52.6992 15.6016L52.6523 15.6953C52.3477 16.3516 51.375 17.1602 49.7461 17.1602C47.6484 17.1602 46.3125 15.7422 46.2656 13.3047H55.2891V12.4141C55.2891 8.59375 53.1094 6.02734 49.5586 6.02734C46.0078 6.02734 43.7109 8.6875 43.7109 12.6602V12.6719C43.7109 16.7031 45.9609 19.2461 49.6875 19.2461ZM49.5703 8.11328C51.293 8.11328 52.5703 9.21484 52.7695 11.4883H46.3008C46.5234 9.29688 47.8359 8.11328 49.5703 8.11328ZM58.3125 19H60.8555V11.1836C60.8555 9.51953 61.9922 8.20703 63.5273 8.20703C65.0273 8.20703 65.9766 9.12109 65.9766 10.5742V19H68.5078V10.9492C68.5078 9.41406 69.5742 8.20703 71.1914 8.20703C72.8555 8.20703 73.6523 9.07422 73.6523 10.832V19H76.1836V10.2227C76.1836 7.57422 74.6836 6.02734 72.1172 6.02734C70.3477 6.02734 68.8828 6.92969 68.2383 8.30078H68.0391C67.4766 6.92969 66.2461 6.02734 64.5117 6.02734C62.8477 6.02734 61.6055 6.83594 61.043 8.23047H60.8555V6.27344H58.3125V19ZM90.5391 19.2461C92.3906 19.2461 93.6797 18.4492 94.2891 17.0781H94.4883V19H97.0195V6.27344H94.4883V13.7383C94.4883 15.7891 93.3984 17.0664 91.3594 17.0664C89.4961 17.0664 88.7227 16.0234 88.7227 13.9141V6.27344H86.1797V14.5117C86.1797 17.5234 87.668 19.2461 90.5391 19.2461ZM100.688 19H103.23V11.1836C103.23 9.51953 104.367 8.20703 105.902 8.20703C107.402 8.20703 108.352 9.12109 108.352 10.5742V19H110.883V10.9492C110.883 9.41406 111.949 8.20703 113.566 8.20703C115.23 8.20703 116.027 9.07422 116.027 10.832V19H118.559V10.2227C118.559 7.57422 117.059 6.02734 114.492 6.02734C112.723 6.02734 111.258 6.92969 110.613 8.30078H110.414C109.852 6.92969 108.621 6.02734 106.887 6.02734C105.223 6.02734 103.98 6.83594 103.418 8.23047H103.23V6.27344H100.688V19ZM125.602 19.2109C127.289 19.2109 128.625 18.4844 129.375 17.1953H129.574V19H132.094V10.293C132.094 7.62109 130.289 6.02734 127.09 6.02734C124.195 6.02734 122.191 7.42188 121.887 9.50781L121.875 9.58984H124.324L124.336 9.54297C124.641 8.64062 125.566 8.125 126.973 8.125C128.695 8.125 129.574 8.89844 129.574 10.293V11.418L126.129 11.6172C123.094 11.8047 121.383 13.1289 121.383 15.4023V15.4258C121.383 17.7344 123.176 19.2109 125.602 19.2109ZM123.914 15.3203V15.2969C123.914 14.1484 124.711 13.5156 126.469 13.4102L129.574 13.2109V14.3008C129.574 15.9414 128.18 17.1836 126.281 17.1836C124.91 17.1836 123.914 16.4922 123.914 15.3203ZM143.566 4C144.434 4 145.16 3.28516 145.16 2.41797C145.16 1.53906 144.434 0.824219 143.566 0.824219C142.688 0.824219 141.973 1.53906 141.973 2.41797C141.973 3.28516 142.688 4 143.566 4ZM142.289 19H144.82V6.27344H142.289V19ZM153.164 19.2109C154.945 19.2109 156.34 18.3906 157.078 16.9961H157.277V19H159.809V1.28125H157.277V8.28906H157.078C156.398 6.91797 154.91 6.05078 153.164 6.05078C149.93 6.05078 147.891 8.59375 147.891 12.625V12.6484C147.891 16.6445 149.965 19.2109 153.164 19.2109ZM153.891 17.043C151.758 17.043 150.48 15.3789 150.48 12.6484V12.625C150.48 9.89453 151.758 8.23047 153.891 8.23047C156 8.23047 157.312 9.90625 157.312 12.625V12.6484C157.312 15.3672 156.012 17.043 153.891 17.043ZM168.938 19.2461C172.195 19.2461 173.953 17.3711 174.375 15.6953L174.398 15.5898L171.949 15.6016L171.902 15.6953C171.598 16.3516 170.625 17.1602 168.996 17.1602C166.898 17.1602 165.562 15.7422 165.516 13.3047H174.539V12.4141C174.539 8.59375 172.359 6.02734 168.809 6.02734C165.258 6.02734 162.961 8.6875 162.961 12.6602V12.6719C162.961 16.7031 165.211 19.2461 168.938 19.2461ZM168.82 8.11328C170.543 8.11328 171.82 9.21484 172.02 11.4883H165.551C165.773 9.29688 167.086 8.11328 168.82 8.11328ZM178.887 4C179.754 4 180.48 3.28516 180.48 2.41797C180.48 1.53906 179.754 0.824219 178.887 0.824219C178.008 0.824219 177.293 1.53906 177.293 2.41797C177.293 3.28516 178.008 4 178.887 4ZM177.609 19H180.141V6.27344H177.609V19ZM187.336 19.2109C189.023 19.2109 190.359 18.4844 191.109 17.1953H191.309V19H193.828V10.293C193.828 7.62109 192.023 6.02734 188.824 6.02734C185.93 6.02734 183.926 7.42188 183.621 9.50781L183.609 9.58984H186.059L186.07 9.54297C186.375 8.64062 187.301 8.125 188.707 8.125C190.43 8.125 191.309 8.89844 191.309 10.293V11.418L187.863 11.6172C184.828 11.8047 183.117 13.1289 183.117 15.4023V15.4258C183.117 17.7344 184.91 19.2109 187.336 19.2109ZM185.648 15.3203V15.2969C185.648 14.1484 186.445 13.5156 188.203 13.4102L191.309 13.2109V14.3008C191.309 15.9414 189.914 17.1836 188.016 17.1836C186.645 17.1836 185.648 16.4922 185.648 15.3203ZM208.617 19.2109C210.398 19.2109 211.793 18.3906 212.531 16.9961H212.73V19H215.262V1.28125H212.73V8.28906H212.531C211.852 6.91797 210.363 6.05078 208.617 6.05078C205.383 6.05078 203.344 8.59375 203.344 12.625V12.6484C203.344 16.6445 205.418 19.2109 208.617 19.2109ZM209.344 17.043C207.211 17.043 205.934 15.3789 205.934 12.6484V12.625C205.934 9.89453 207.211 8.23047 209.344 8.23047C211.453 8.23047 212.766 9.90625 212.766 12.625V12.6484C212.766 15.3672 211.465 17.043 209.344 17.043ZM224.391 19.2461C227.648 19.2461 229.406 17.3711 229.828 15.6953L229.852 15.5898L227.402 15.6016L227.355 15.6953C227.051 16.3516 226.078 17.1602 224.449 17.1602C222.352 17.1602 221.016 15.7422 220.969 13.3047H229.992V12.4141C229.992 8.59375 227.812 6.02734 224.262 6.02734C220.711 6.02734 218.414 8.6875 218.414 12.6602V12.6719C218.414 16.7031 220.664 19.2461 224.391 19.2461ZM224.273 8.11328C225.996 8.11328 227.273 9.21484 227.473 11.4883H221.004C221.227 9.29688 222.539 8.11328 224.273 8.11328ZM239.578 23.2422H242.121V16.9844H242.309C242.988 18.3555 244.477 19.2109 246.223 19.2109C249.457 19.2109 251.496 16.6797 251.496 12.6484V12.625C251.496 8.61719 249.434 6.05078 246.223 6.05078C244.441 6.05078 243.047 6.88281 242.309 8.27734H242.121V6.27344H239.578V23.2422ZM245.508 17.043C243.387 17.043 242.074 15.3672 242.074 12.6484V12.625C242.074 9.90625 243.387 8.23047 245.508 8.23047C247.629 8.23047 248.906 9.88281 248.906 12.625V12.6484C248.906 15.3789 247.629 17.043 245.508 17.043ZM254.555 19H257.098V11.3945C257.098 9.55469 258.422 8.35938 260.367 8.35938C260.848 8.35938 261.281 8.41797 261.738 8.51172V6.16797C261.48 6.10938 261.035 6.05078 260.625 6.05078C258.926 6.05078 257.742 6.84766 257.285 8.19531H257.098V6.27344H254.555V19ZM269.227 19.2461C272.953 19.2461 275.238 16.75 275.238 12.6484V12.625C275.238 8.52344 272.941 6.02734 269.227 6.02734C265.5 6.02734 263.203 8.53516 263.203 12.625V12.6484C263.203 16.75 265.488 19.2461 269.227 19.2461ZM269.227 17.125C267.035 17.125 265.805 15.4727 265.805 12.6484V12.625C265.805 9.80078 267.035 8.14844 269.227 8.14844C271.406 8.14844 272.648 9.80078 272.648 12.625V12.6484C272.648 15.4609 271.406 17.125 269.227 17.125ZM279.574 4C280.453 4 281.168 3.28516 281.168 2.41797C281.168 1.53906 280.453 0.824219 279.574 0.824219C278.695 0.824219 277.98 1.53906 277.98 2.41797C277.98 3.28516 278.695 4 279.574 4ZM276.715 23.3594C279.48 23.3594 280.84 22.1641 280.84 19.5508V6.27344H278.309V19.5391C278.309 20.8164 277.805 21.2617 276.504 21.2617C276.387 21.2617 276.27 21.2617 276.152 21.2617V23.3477C276.305 23.3477 276.527 23.3594 276.715 23.3594ZM289.898 19.2461C293.156 19.2461 294.914 17.3711 295.336 15.6953L295.359 15.5898L292.91 15.6016L292.863 15.6953C292.559 16.3516 291.586 17.1602 289.957 17.1602C287.859 17.1602 286.523 15.7422 286.477 13.3047H295.5V12.4141C295.5 8.59375 293.32 6.02734 289.77 6.02734C286.219 6.02734 283.922 8.6875 283.922 12.6602V12.6719C283.922 16.7031 286.172 19.2461 289.898 19.2461ZM289.781 8.11328C291.504 8.11328 292.781 9.21484 292.98 11.4883H286.512C286.734 9.29688 288.047 8.11328 289.781 8.11328ZM303.328 19.082C303.82 19.082 304.289 19.0234 304.699 18.9531V16.9258C304.348 16.9609 304.125 16.9727 303.738 16.9727C302.484 16.9727 301.969 16.4102 301.969 15.0391V8.27734H304.699V6.27344H301.969V3.0625H299.379V6.27344H297.387V8.27734H299.379V15.6484C299.379 18.0977 300.527 19.082 303.328 19.082ZM312.914 19.2461C316.641 19.2461 318.926 16.75 318.926 12.6484V12.625C318.926 8.52344 316.629 6.02734 312.914 6.02734C309.188 6.02734 306.891 8.53516 306.891 12.625V12.6484C306.891 16.75 309.176 19.2461 312.914 19.2461ZM312.914 17.125C310.723 17.125 309.492 15.4727 309.492 12.6484V12.625C309.492 9.80078 310.723 8.14844 312.914 8.14844C315.094 8.14844 316.336 9.80078 316.336 12.625V12.6484C316.336 15.4609 315.094 17.125 312.914 17.125ZM324.727 13.75H327.152V13.0352C327.152 11.8281 327.586 11.207 329.098 10.3164C330.645 9.39062 331.559 8.11328 331.559 6.30859V6.28516C331.559 3.78906 329.473 1.94922 326.379 1.94922C322.98 1.94922 321.164 3.96484 321.059 6.61328V6.63672L323.473 6.625H323.496C323.59 5.07812 324.633 4.10547 326.25 4.10547C327.855 4.10547 328.898 5.07812 328.898 6.39062V6.41406C328.898 7.60938 328.395 8.28906 326.977 9.14453C325.371 10.1055 324.656 11.1602 324.715 12.8125L324.727 13.75ZM326.086 19.2578C327.164 19.2578 327.891 18.5547 327.891 17.5117C327.891 16.457 327.164 15.7539 326.086 15.7539C325.008 15.7539 324.27 16.457 324.27 17.5117C324.27 18.5547 325.008 19.2578 326.086 19.2578Z" fill="#07192E"/>
</svg>
