<svg width="48" height="48" viewBox="0 0 48 48" fill="none" xmlns="http://www.w3.org/2000/svg">
<rect width="48" height="48" rx="24" fill="#73C04A"/>
<path d="M18.9399 17C18.9397 17.5305 18.7287 18.0391 18.3534 18.4139C17.9782 18.7888 17.4694 18.9993 16.9389 18.999C16.4085 18.9988 15.8999 18.7878 15.525 18.4125C15.1501 18.0373 14.9397 17.5285 14.9399 16.998C14.9402 16.4676 15.1512 15.959 15.5264 15.5841C15.9017 15.2092 16.4105 14.9988 16.9409 14.999C17.4714 14.9993 17.98 15.2103 18.3549 15.5855C18.7297 15.9608 18.9402 16.4696 18.9399 17ZM18.9999 20.48H14.9999V33H18.9999V20.48ZM25.3199 20.48H21.3399V33H25.2799V26.43C25.2799 22.77 30.0499 22.43 30.0499 26.43V33H33.9999V25.07C33.9999 18.9 26.9399 19.13 25.2799 22.16L25.3199 20.48Z" fill="#07192E"/>
</svg>
