<svg width="1513" height="1513" viewBox="0 0 1513 1513" fill="none" xmlns="http://www.w3.org/2000/svg">
<path fill-rule="evenodd" clip-rule="evenodd" d="M1172.95 923.114L1265.3 830.996V645.864L1172.95 737.982V923.114Z" fill="white"/>
<path fill-rule="evenodd" clip-rule="evenodd" d="M987.803 923.116H1172.86V1107.81H987.803V923.116Z" fill="white"/>
<path fill-rule="evenodd" clip-rule="evenodd" d="M1080.24 461.368H1265.3V646.067H1080.24V461.368Z" fill="white"/>
<path fill-rule="evenodd" clip-rule="evenodd" d="M424.88 585.153H430.095C469.875 585.801 508.644 597.208 545.016 612.688C544.998 629.808 545.035 646.907 545.016 664.008C523.224 651.725 500.023 641.632 475.603 635.939C449.356 629.884 421.683 628.379 395.284 634.397C369.475 640.224 345.779 654.448 328.27 674.233C312.662 691.408 302.46 713.345 299.206 736.311C296.331 756.895 297.416 778.223 303.659 798.121C309.864 818.153 321.968 836.168 337.614 850.049C353.183 864.179 372.483 874.023 392.943 878.784C407.427 882.173 422.407 883.449 437.271 882.668C469.323 881.679 500.822 872.176 528.991 857.037C535.767 853.724 542.01 849.459 548.538 845.688C548.556 863.169 548.519 880.649 548.556 898.149C528.248 909.099 506.284 917.02 483.616 921.419C464.412 925.36 444.77 926.847 425.186 926.827C406.038 926.617 386.776 924.541 368.334 919.268C340.944 911.784 315.936 896.456 296.179 876.156C267.611 846.525 249.948 806.367 248.502 765.121C247.018 733.129 253.794 700.377 270.142 672.652C279.012 657.267 290.603 643.556 303.716 631.597C324.843 612.193 350.766 597.969 378.65 591.113C393.742 587.209 409.33 585.535 424.88 585.153Z" fill="white"/>
<path fill-rule="evenodd" clip-rule="evenodd" d="M607.83 589.548C623.721 589.529 639.613 589.529 655.505 589.548V919.033C655.295 937.505 654.61 956.165 650.194 974.18C648.082 983.016 644.542 991.508 639.518 999.068C632.077 1010.53 621.323 1019.67 609.201 1025.9C596.563 1032.31 582.309 1035.11 568.206 1035.51C561.965 1035.72 555.798 1034.83 549.594 1034.18C546.529 1019.39 543.694 1004.55 540.706 989.737C554.123 989.623 567.978 990.347 580.901 986.005C591.045 982.559 598.751 973.912 602.615 964.107C604.251 959.536 605.146 954.739 605.794 949.939C607.717 936.115 607.602 922.156 607.849 908.256C607.83 802.02 607.83 695.784 607.83 589.548Z" fill="white"/>
<path fill-rule="evenodd" clip-rule="evenodd" d="M778.659 630.006C778.639 665.095 778.659 700.184 778.659 735.292C797.804 735.159 817.18 736.111 836.078 732.34C847.346 730.228 857.755 723.735 864.588 714.539C872.05 704.734 875.342 692.168 874.884 679.946C874.41 664.295 866.683 648.416 853.131 640.078C844.11 634.347 833.338 632.5 822.89 631.376C808.196 629.911 793.408 630.026 778.659 630.006ZM730.811 923.018C730.811 811.848 730.792 700.699 730.811 589.528C758.979 589.548 787.147 589.548 815.296 589.528C837.678 589.662 860.631 593.507 880.308 604.646C892.812 611.767 903.89 621.667 911.522 633.908C919.915 647.218 923.874 662.982 924.235 678.632C924.711 689.408 923.512 700.279 920.391 710.618C917.003 721.851 911.123 732.322 903.243 741.023C895.02 750.238 884.534 757.244 873.324 762.271C871.631 763.032 869.822 763.564 868.262 764.574C886.895 777.235 901.74 794.636 914.339 813.143C931.278 837.303 945.742 863.044 962.147 887.567C970.236 899.675 979.256 911.118 987.802 922.923V923.018C968.866 922.96 949.908 923.114 930.972 922.942C924.102 912.527 917.403 901.999 910.076 891.927C906.687 887.224 903.319 882.503 900.464 877.456C893.631 866.167 886.76 854.895 879.814 843.663C876.94 839.131 874.428 834.334 871.06 830.126C863.542 819.844 855.511 809.888 846.508 800.843C839.104 793.647 831.263 786.546 821.843 782.091C808.082 776.854 793.066 778.112 778.659 777.94C778.659 826.299 778.639 874.659 778.659 922.999C762.71 923.018 746.76 923.018 730.811 923.018Z" fill="white"/>
</svg>
