<svg width="72" height="46" viewBox="0 0 72 46" fill="none" xmlns="http://www.w3.org/2000/svg">
<path fill-rule="evenodd" clip-rule="evenodd" d="M65.462 32.8572L72.0001 26.3022V13.1285L65.462 19.6835V32.8572Z" fill="#07192E"/>
<path fill-rule="evenodd" clip-rule="evenodd" d="M52.3539 32.8572H65.4556V46H52.3539V32.8572Z" fill="#07192E"/>
<path fill-rule="evenodd" clip-rule="evenodd" d="M58.8983 -2.57492e-05H72V13.1428H58.8983V-2.57492e-05Z" fill="#07192E"/>
<path fill-rule="evenodd" clip-rule="evenodd" d="M12.5011 8.8084H12.8703C15.6865 8.85451 18.4313 9.66619 21.0063 10.7677C21.005 11.986 21.0076 13.2027 21.0063 14.4196C19.4635 13.5456 17.8209 12.8273 16.0921 12.4222C14.2339 11.9914 12.2747 11.8842 10.4058 12.3125C8.57857 12.7271 6.90098 13.7393 5.66138 15.1472C4.55639 16.3693 3.83417 17.9303 3.60375 19.5645C3.40024 21.0292 3.47707 22.5469 3.91903 23.9629C4.35835 25.3883 5.21527 26.6702 6.3229 27.658C7.42516 28.6634 8.79153 29.3639 10.24 29.7027C11.2654 29.9439 12.326 30.0347 13.3783 29.9791C15.6475 29.9087 17.8775 29.2325 19.8717 28.1552C20.3515 27.9195 20.7934 27.6159 21.2556 27.3476C21.2569 28.5916 21.2543 29.8354 21.2569 31.0807C19.8192 31.8598 18.2642 32.4235 16.6594 32.7365C15.2998 33.017 13.9092 33.1227 12.5227 33.1213C11.1671 33.1064 9.80345 32.9587 8.49777 32.5835C6.5587 32.0509 4.78823 30.9602 3.38948 29.5157C1.36696 27.4072 0.116509 24.5496 0.01409 21.6146C-0.0909719 19.3381 0.388745 17.0076 1.54613 15.0347C2.17414 13.9399 2.99471 12.9642 3.92309 12.1133C5.41879 10.7325 7.25402 9.72036 9.22811 9.2325C10.2966 8.9547 11.4001 8.83553 12.5011 8.8084Z" fill="#07192E"/>
<path fill-rule="evenodd" clip-rule="evenodd" d="M25.4533 9.12107C26.5783 9.11974 27.7034 9.11974 28.8285 9.12107V32.5667C28.8137 33.8811 28.7652 35.209 28.4525 36.4909C28.303 37.1196 28.0524 37.7239 27.6967 38.2619C27.1699 39.0775 26.4086 39.728 25.5503 40.1711C24.6557 40.6276 23.6465 40.8269 22.6481 40.8553C22.2062 40.8702 21.7696 40.8066 21.3304 40.7605C21.1134 39.7076 20.9127 38.6521 20.7012 37.5979C21.6511 37.5897 22.6319 37.6413 23.5468 37.3323C24.265 37.0871 24.8106 36.4718 25.0841 35.7741C25.1999 35.4488 25.2633 35.1074 25.3092 34.7659C25.4453 33.7822 25.4372 32.7889 25.4546 31.7998C25.4533 24.2402 25.4533 16.6806 25.4533 9.12107Z" fill="#07192E"/>
<path fill-rule="evenodd" clip-rule="evenodd" d="M37.5472 12C37.5458 14.4969 37.5472 16.9938 37.5472 19.492C38.9026 19.4825 40.2744 19.5502 41.6122 19.2819C42.41 19.1316 43.1469 18.6696 43.6307 18.0152C44.1589 17.3175 44.392 16.4234 44.3596 15.5536C44.326 14.4399 43.779 13.31 42.8196 12.7167C42.1809 12.3089 41.4183 12.1775 40.6786 12.0975C39.6383 11.9932 38.5914 12.0014 37.5472 12ZM34.1597 32.8502C34.1597 24.9396 34.1584 17.0304 34.1597 9.11965C36.1539 9.12108 38.1481 9.12108 40.141 9.11965C41.7255 9.12914 43.3505 9.40277 44.7436 10.1954C45.6289 10.7021 46.4131 11.4066 46.9534 12.2777C47.5476 13.2247 47.8279 14.3465 47.8535 15.4601C47.8872 16.227 47.8023 17.0005 47.5813 17.7362C47.3415 18.5355 46.9252 19.2806 46.3673 19.8998C45.7852 20.5555 45.0428 21.0541 44.2492 21.4117C44.1293 21.4659 44.0012 21.5038 43.8908 21.5756C45.2099 22.4766 46.2609 23.7148 47.1529 25.0317C48.3521 26.7509 49.3761 28.5826 50.5375 30.3276C51.1102 31.1892 51.7488 32.0034 52.3538 32.8435V32.8502C51.0132 32.8461 49.671 32.8571 48.3304 32.8448C47.844 32.1037 47.3698 31.3546 46.8511 30.6379C46.6111 30.3032 46.3727 29.9673 46.1706 29.6081C45.6868 28.8048 45.2004 28.0027 44.7086 27.2035C44.5052 26.881 44.3273 26.5396 44.0889 26.2402C43.5566 25.5086 42.9881 24.8001 42.3507 24.1565C41.8265 23.6444 41.2714 23.1391 40.6045 22.8221C39.6302 22.4494 38.5671 22.539 37.5472 22.5267C37.5472 25.9679 37.5458 29.4091 37.5472 32.8489C36.418 32.8502 35.2889 32.8502 34.1597 32.8502Z" fill="#07192E"/>
</svg>
