<svg width="248" height="39" viewBox="0 0 248 39" fill="none" xmlns="http://www.w3.org/2000/svg">
<path d="M0.617188 14H2.19922V8.50684H7.81543V7.10059H2.19922V2.74121H8.31641V1.31738H0.617188V14ZM12.7109 14.167C13.9854 14.167 14.9785 13.6133 15.5762 12.6025H15.7168V14H17.2461V7.51367C17.2461 5.54492 15.9541 4.3584 13.6426 4.3584C11.6211 4.3584 10.1797 5.36035 9.93359 6.8457L9.9248 6.89844H11.4541L11.4629 6.87207C11.709 6.13379 12.4561 5.71191 13.5898 5.71191C15.0049 5.71191 15.7168 6.34473 15.7168 7.51367V8.375L13.001 8.54199C10.7949 8.67383 9.54688 9.64941 9.54688 11.3369V11.3545C9.54688 13.0771 10.9092 14.167 12.7109 14.167ZM11.1113 11.3193V11.3018C11.1113 10.3613 11.7441 9.85156 13.1855 9.76367L15.7168 9.60547V10.4668C15.7168 11.8203 14.583 12.8398 13.0273 12.8398C11.9287 12.8398 11.1113 12.2773 11.1113 11.3193ZM23.6709 18.3418C24.8662 18.3418 25.9824 17.8496 25.9824 16.5488V16.5312C25.9824 15.5469 25.2266 14.9141 24.0928 14.9141L24.6553 14.123C26.4746 13.8857 27.5117 12.752 27.8545 11.2314L27.8721 11.1348L26.3604 11.1436L26.3428 11.1963C25.9912 12.251 25.1826 12.8135 23.9082 12.8135C22.2207 12.8135 21.1309 11.416 21.1309 9.23633V9.21875C21.1309 7.08301 22.2031 5.71191 23.9082 5.71191C25.2705 5.71191 26.1143 6.46777 26.3516 7.39941L26.3604 7.42578H27.8809L27.8721 7.37305C27.5908 5.68555 26.2109 4.3584 23.9082 4.3584C21.2539 4.3584 19.5664 6.27441 19.5664 9.21875V9.23633C19.5664 12.04 21.043 13.9033 23.3984 14.1406L22.7744 15.0723V15.8633H23.0996C24.04 15.8633 24.5146 16.0127 24.5146 16.584V16.6016C24.5146 17.1113 23.9258 17.2783 23.3896 17.2783C22.8711 17.2783 22.4141 17.1992 22.2559 17.1641V18.1836C22.7129 18.2891 23.1875 18.3418 23.6709 18.3418ZM32.7148 14.167C33.9893 14.167 34.9824 13.6133 35.5801 12.6025H35.7207V14H37.25V7.51367C37.25 5.54492 35.958 4.3584 33.6465 4.3584C31.625 4.3584 30.1836 5.36035 29.9375 6.8457L29.9287 6.89844H31.458L31.4668 6.87207C31.7129 6.13379 32.46 5.71191 33.5938 5.71191C35.0088 5.71191 35.7207 6.34473 35.7207 7.51367V8.375L33.0049 8.54199C30.7988 8.67383 29.5508 9.64941 29.5508 11.3369V11.3545C29.5508 13.0771 30.9131 14.167 32.7148 14.167ZM31.1152 11.3193V11.3018C31.1152 10.3613 31.748 9.85156 33.1895 9.76367L35.7207 9.60547V10.4668C35.7207 11.8203 34.5869 12.8398 33.0312 12.8398C31.9326 12.8398 31.1152 12.2773 31.1152 11.3193ZM48.2803 14.167C49.6689 14.167 50.627 13.5957 51.0928 12.585H51.2334V14H52.7627V4.52539H51.2334V10.1328C51.2334 11.7939 50.3457 12.8135 48.6758 12.8135C47.1641 12.8135 46.5488 11.9961 46.5488 10.291V4.52539H45.0195V10.6602C45.0195 12.9014 46.127 14.167 48.2803 14.167ZM55.6191 14H57.1484V8.12891C57.1484 6.79297 58.0889 5.71191 59.3281 5.71191C60.5234 5.71191 61.2969 6.44141 61.2969 7.56641V14H62.8262V7.90918C62.8262 6.70508 63.6963 5.71191 65.0146 5.71191C66.3506 5.71191 66.9922 6.40625 66.9922 7.80371V14H68.5215V7.45215C68.5215 5.46582 67.4404 4.3584 65.5068 4.3584C64.1973 4.3584 63.1162 5.01758 62.6064 6.01953H62.4658C62.0264 5.03516 61.1299 4.3584 59.8467 4.3584C58.6074 4.3584 57.7109 4.94727 57.2891 5.9668H57.1484V4.52539H55.6191V14ZM80.2373 14.167C82.9355 14.167 84.6055 12.3037 84.6055 9.27148V9.25391C84.6055 6.21289 82.9355 4.3584 80.2373 4.3584C77.5391 4.3584 75.8691 6.21289 75.8691 9.25391V9.27148C75.8691 12.3037 77.5391 14.167 80.2373 14.167ZM80.2373 12.8135C78.4443 12.8135 77.4336 11.5039 77.4336 9.27148V9.25391C77.4336 7.0127 78.4443 5.71191 80.2373 5.71191C82.0303 5.71191 83.041 7.0127 83.041 9.25391V9.27148C83.041 11.5039 82.0303 12.8135 80.2373 12.8135ZM86.9785 14H88.5078V8.12891C88.5078 6.74023 89.5449 5.81738 91.0039 5.81738C91.3379 5.81738 91.6279 5.85254 91.9443 5.90527V4.41992C91.7949 4.39355 91.4697 4.3584 91.1797 4.3584C89.8965 4.3584 89.0088 4.93848 88.6484 5.93164H88.5078V4.52539H86.9785V14ZM97.2002 18.3418C98.3955 18.3418 99.5117 17.8496 99.5117 16.5488V16.5312C99.5117 15.5469 98.7559 14.9141 97.6221 14.9141L98.1846 14.123C100.004 13.8857 101.041 12.752 101.384 11.2314L101.401 11.1348L99.8896 11.1436L99.8721 11.1963C99.5205 12.251 98.7119 12.8135 97.4375 12.8135C95.75 12.8135 94.6602 11.416 94.6602 9.23633V9.21875C94.6602 7.08301 95.7324 5.71191 97.4375 5.71191C98.7998 5.71191 99.6436 6.46777 99.8809 7.39941L99.8896 7.42578H101.41L101.401 7.37305C101.12 5.68555 99.7402 4.3584 97.4375 4.3584C94.7832 4.3584 93.0957 6.27441 93.0957 9.21875V9.23633C93.0957 12.04 94.5723 13.9033 96.9277 14.1406L96.3037 15.0723V15.8633H96.6289C97.5693 15.8633 98.0439 16.0127 98.0439 16.584V16.6016C98.0439 17.1113 97.4551 17.2783 96.9189 17.2783C96.4004 17.2783 95.9434 17.1992 95.7852 17.1641V18.1836C96.2422 18.2891 96.7168 18.3418 97.2002 18.3418ZM106.244 14.167C107.519 14.167 108.512 13.6133 109.109 12.6025H109.25V14H110.779V7.51367C110.779 5.54492 109.487 4.3584 107.176 4.3584C105.154 4.3584 103.713 5.36035 103.467 6.8457L103.458 6.89844H104.987L104.996 6.87207C105.242 6.13379 105.989 5.71191 107.123 5.71191C108.538 5.71191 109.25 6.34473 109.25 7.51367V8.375L106.534 8.54199C104.328 8.67383 103.08 9.64941 103.08 11.3369V11.3545C103.08 13.0771 104.442 14.167 106.244 14.167ZM104.645 11.3193V11.3018C104.645 10.3613 105.277 9.85156 106.719 9.76367L109.25 9.60547V10.4668C109.25 11.8203 108.116 12.8398 106.561 12.8398C105.462 12.8398 104.645 12.2773 104.645 11.3193ZM113.574 14H115.104V8.12891C115.104 6.79297 116.044 5.71191 117.283 5.71191C118.479 5.71191 119.252 6.44141 119.252 7.56641V14H120.781V7.90918C120.781 6.70508 121.651 5.71191 122.97 5.71191C124.306 5.71191 124.947 6.40625 124.947 7.80371V14H126.477V7.45215C126.477 5.46582 125.396 4.3584 123.462 4.3584C122.152 4.3584 121.071 5.01758 120.562 6.01953H120.421C119.981 5.03516 119.085 4.3584 117.802 4.3584C116.562 4.3584 115.666 4.94727 115.244 5.9668H115.104V4.52539H113.574V14ZM133.104 14.167C135.336 14.167 136.689 12.9014 137.015 11.6182L137.032 11.5479H135.503L135.468 11.627C135.213 12.1982 134.422 12.8047 133.139 12.8047C131.451 12.8047 130.37 11.6621 130.326 9.70215H137.146V9.10449C137.146 6.27441 135.582 4.3584 133.007 4.3584C130.432 4.3584 128.762 6.3623 128.762 9.28906V9.29785C128.762 12.2686 130.396 14.167 133.104 14.167ZM132.998 5.7207C134.396 5.7207 135.433 6.6084 135.591 8.48047H130.353C130.52 6.67871 131.592 5.7207 132.998 5.7207ZM139.52 14H141.049V8.39258C141.049 6.73145 142.007 5.71191 143.519 5.71191C145.03 5.71191 145.733 6.5293 145.733 8.23438V14H147.263V7.86523C147.263 5.61523 146.076 4.3584 143.949 4.3584C142.552 4.3584 141.664 4.94727 141.189 5.94922H141.049V4.52539H139.52V14ZM153.397 14.0703C153.696 14.0703 153.986 14.0352 154.285 13.9824V12.6816C154.004 12.708 153.854 12.7168 153.582 12.7168C152.598 12.7168 152.211 12.2686 152.211 11.1523V5.79102H154.285V4.52539H152.211V2.07324H150.629V4.52539H149.135V5.79102H150.629V11.5391C150.629 13.3496 151.446 14.0703 153.397 14.0703ZM160.323 14.167C163.021 14.167 164.691 12.3037 164.691 9.27148V9.25391C164.691 6.21289 163.021 4.3584 160.323 4.3584C157.625 4.3584 155.955 6.21289 155.955 9.25391V9.27148C155.955 12.3037 157.625 14.167 160.323 14.167ZM160.323 12.8135C158.53 12.8135 157.52 11.5039 157.52 9.27148V9.25391C157.52 7.0127 158.53 5.71191 160.323 5.71191C162.116 5.71191 163.127 7.0127 163.127 9.25391V9.27148C163.127 11.5039 162.116 12.8135 160.323 12.8135ZM175.994 14.167C178.227 14.167 179.58 12.9014 179.905 11.6182L179.923 11.5479H178.394L178.358 11.627C178.104 12.1982 177.312 12.8047 176.029 12.8047C174.342 12.8047 173.261 11.6621 173.217 9.70215H180.037V9.10449C180.037 6.27441 178.473 4.3584 175.897 4.3584C173.322 4.3584 171.652 6.3623 171.652 9.28906V9.29785C171.652 12.2686 173.287 14.167 175.994 14.167ZM175.889 5.7207C177.286 5.7207 178.323 6.6084 178.481 8.48047H173.243C173.41 6.67871 174.482 5.7207 175.889 5.7207ZM190.839 14.0703C191.138 14.0703 191.428 14.0352 191.727 13.9824V12.6816C191.445 12.708 191.296 12.7168 191.023 12.7168C190.039 12.7168 189.652 12.2686 189.652 11.1523V5.79102H191.727V4.52539H189.652V2.07324H188.07V4.52539H186.576V5.79102H188.07V11.5391C188.07 13.3496 188.888 14.0703 190.839 14.0703ZM194.82 2.69727C195.4 2.69727 195.875 2.22266 195.875 1.64258C195.875 1.0625 195.4 0.587891 194.82 0.587891C194.24 0.587891 193.766 1.0625 193.766 1.64258C193.766 2.22266 194.24 2.69727 194.82 2.69727ZM194.047 14H195.576V4.52539H194.047V14ZM198.459 14H199.988V8.12891C199.988 6.74023 201.025 5.81738 202.484 5.81738C202.818 5.81738 203.108 5.85254 203.425 5.90527V4.41992C203.275 4.39355 202.95 4.3584 202.66 4.3584C201.377 4.3584 200.489 4.93848 200.129 5.93164H199.988V4.52539H198.459V14ZM208.918 14.167C211.15 14.167 212.504 12.9014 212.829 11.6182L212.847 11.5479H211.317L211.282 11.627C211.027 12.1982 210.236 12.8047 208.953 12.8047C207.266 12.8047 206.185 11.6621 206.141 9.70215H212.961V9.10449C212.961 6.27441 211.396 4.3584 208.821 4.3584C206.246 4.3584 204.576 6.3623 204.576 9.28906V9.29785C204.576 12.2686 206.211 14.167 208.918 14.167ZM208.812 5.7207C210.21 5.7207 211.247 6.6084 211.405 8.48047H206.167C206.334 6.67871 207.406 5.7207 208.812 5.7207ZM223.648 14.167C225.802 14.167 227.445 12.998 227.445 11.3105V11.293C227.445 9.93945 226.584 9.16602 224.8 8.73535L223.341 8.38379C222.225 8.11133 221.75 7.70703 221.75 7.06543V7.04785C221.75 6.21289 222.576 5.63281 223.701 5.63281C224.844 5.63281 225.582 6.15137 225.784 6.89844H227.287C227.076 5.35156 225.696 4.3584 223.71 4.3584C221.697 4.3584 220.186 5.54492 220.186 7.11816V7.12695C220.186 8.48926 220.985 9.2627 222.761 9.68457L224.229 10.0361C225.397 10.3174 225.881 10.7656 225.881 11.4072V11.4248C225.881 12.2861 224.976 12.8926 223.701 12.8926C222.488 12.8926 221.732 12.374 221.478 11.583H219.913C220.089 13.1475 221.539 14.167 223.648 14.167ZM233.686 14.167C235.918 14.167 237.271 12.9014 237.597 11.6182L237.614 11.5479H236.085L236.05 11.627C235.795 12.1982 235.004 12.8047 233.721 12.8047C232.033 12.8047 230.952 11.6621 230.908 9.70215H237.729V9.10449C237.729 6.27441 236.164 4.3584 233.589 4.3584C231.014 4.3584 229.344 6.3623 229.344 9.28906V9.29785C229.344 12.2686 230.979 14.167 233.686 14.167ZM233.58 5.7207C234.978 5.7207 236.015 6.6084 236.173 8.48047H230.935C231.102 6.67871 232.174 5.7207 233.58 5.7207ZM243.274 14.167C244.663 14.167 245.621 13.5957 246.087 12.585H246.228V14H247.757V4.52539H246.228V10.1328C246.228 11.7939 245.34 12.8135 243.67 12.8135C242.158 12.8135 241.543 11.9961 241.543 10.291V4.52539H240.014V10.6602C240.014 12.9014 241.121 14.167 243.274 14.167ZM0.423828 38.1641H1.95312V33.5059H2.09375C2.6123 34.5166 3.74609 35.167 5.04688 35.167C7.45508 35.167 9.01953 33.2422 9.01953 30.2715V30.2539C9.01953 27.3008 7.44629 25.3584 5.04688 25.3584C3.72852 25.3584 2.67383 25.9824 2.09375 27.0371H1.95312V25.5254H0.423828V38.1641ZM4.69531 33.8135C2.97266 33.8135 1.91797 32.46 1.91797 30.2715V30.2539C1.91797 28.0654 2.97266 26.7119 4.69531 26.7119C6.42676 26.7119 7.45508 28.0479 7.45508 30.2539V30.2715C7.45508 32.4775 6.42676 33.8135 4.69531 33.8135ZM11.4102 35H12.9395V29.1289C12.9395 27.7402 13.9766 26.8174 15.4355 26.8174C15.7695 26.8174 16.0596 26.8525 16.376 26.9053V25.4199C16.2266 25.3936 15.9014 25.3584 15.6113 25.3584C14.3281 25.3584 13.4404 25.9385 13.0801 26.9316H12.9395V25.5254H11.4102V35ZM21.8955 35.167C24.5938 35.167 26.2637 33.3037 26.2637 30.2715V30.2539C26.2637 27.2129 24.5938 25.3584 21.8955 25.3584C19.1973 25.3584 17.5273 27.2129 17.5273 30.2539V30.2715C17.5273 33.3037 19.1973 35.167 21.8955 35.167ZM21.8955 33.8135C20.1025 33.8135 19.0918 32.5039 19.0918 30.2715V30.2539C19.0918 28.0127 20.1025 26.7119 21.8955 26.7119C23.6885 26.7119 24.6992 28.0127 24.6992 30.2539V30.2715C24.6992 32.5039 23.6885 33.8135 21.8955 33.8135ZM29.4277 23.6973C30.0078 23.6973 30.4824 23.2227 30.4824 22.6426C30.4824 22.0625 30.0078 21.5879 29.4277 21.5879C28.8477 21.5879 28.373 22.0625 28.373 22.6426C28.373 23.2227 28.8477 23.6973 29.4277 23.6973ZM27.2832 38.252C29.2695 38.252 30.1924 37.417 30.1924 35.4658V25.5254H28.6631V35.4922C28.6631 36.5381 28.2764 36.8984 27.248 36.8984H27.0195V38.252H27.2832ZM36.9512 35.167C39.1836 35.167 40.5371 33.9014 40.8623 32.6182L40.8799 32.5479H39.3506L39.3154 32.627C39.0605 33.1982 38.2695 33.8047 36.9863 33.8047C35.2988 33.8047 34.2178 32.6621 34.1738 30.7021H40.9941V30.1045C40.9941 27.2744 39.4297 25.3584 36.8545 25.3584C34.2793 25.3584 32.6094 27.3623 32.6094 30.2891V30.2979C32.6094 33.2686 34.2441 35.167 36.9512 35.167ZM36.8457 26.7207C38.2432 26.7207 39.2803 27.6084 39.4385 29.4805H34.2002C34.3672 27.6787 35.4395 26.7207 36.8457 26.7207ZM46.7334 35.0703C47.0322 35.0703 47.3223 35.0352 47.6211 34.9824V33.6816C47.3398 33.708 47.1904 33.7168 46.918 33.7168C45.9336 33.7168 45.5469 33.2686 45.5469 32.1523V26.791H47.6211V25.5254H45.5469V23.0732H43.9648V25.5254H42.4707V26.791H43.9648V32.5391C43.9648 34.3496 44.7822 35.0703 46.7334 35.0703ZM53.6592 35.167C56.3574 35.167 58.0273 33.3037 58.0273 30.2715V30.2539C58.0273 27.2129 56.3574 25.3584 53.6592 25.3584C50.9609 25.3584 49.291 27.2129 49.291 30.2539V30.2715C49.291 33.3037 50.9609 35.167 53.6592 35.167ZM53.6592 33.8135C51.8662 33.8135 50.8555 32.5039 50.8555 30.2715V30.2539C50.8555 28.0127 51.8662 26.7119 53.6592 26.7119C55.4521 26.7119 56.4629 28.0127 56.4629 30.2539V30.2715C56.4629 32.5039 55.4521 33.8135 53.6592 33.8135ZM68.9609 35.167C70.2793 35.167 71.334 34.543 71.9141 33.4883H72.0547V35H73.584V21.7637H72.0547V27.0195H71.9141C71.3955 26.0088 70.2617 25.3584 68.9609 25.3584C66.5527 25.3584 64.9883 27.2832 64.9883 30.2539V30.2715C64.9883 33.2246 66.5615 35.167 68.9609 35.167ZM69.3125 33.8135C67.5811 33.8135 66.5527 32.4775 66.5527 30.2715V30.2539C66.5527 28.0479 67.5811 26.7119 69.3125 26.7119C71.0352 26.7119 72.0898 28.0654 72.0898 30.2539V30.2715C72.0898 32.46 71.0352 33.8135 69.3125 33.8135ZM80.4131 35.167C83.1113 35.167 84.7812 33.3037 84.7812 30.2715V30.2539C84.7812 27.2129 83.1113 25.3584 80.4131 25.3584C77.7148 25.3584 76.0449 27.2129 76.0449 30.2539V30.2715C76.0449 33.3037 77.7148 35.167 80.4131 35.167ZM80.4131 33.8135C78.6201 33.8135 77.6094 32.5039 77.6094 30.2715V30.2539C77.6094 28.0127 78.6201 26.7119 80.4131 26.7119C82.2061 26.7119 83.2168 28.0127 83.2168 30.2539V30.2715C83.2168 32.5039 82.2061 33.8135 80.4131 33.8135ZM92.2168 38.1641H93.7461V33.5059H93.8867C94.4053 34.5166 95.5391 35.167 96.8398 35.167C99.248 35.167 100.812 33.2422 100.812 30.2715V30.2539C100.812 27.3008 99.2393 25.3584 96.8398 25.3584C95.5215 25.3584 94.4668 25.9824 93.8867 27.0371H93.7461V25.5254H92.2168V38.1641ZM96.4883 33.8135C94.7656 33.8135 93.7109 32.46 93.7109 30.2715V30.2539C93.7109 28.0654 94.7656 26.7119 96.4883 26.7119C98.2197 26.7119 99.248 28.0479 99.248 30.2539V30.2715C99.248 32.4775 98.2197 33.8135 96.4883 33.8135ZM105.805 35.167C107.079 35.167 108.072 34.6133 108.67 33.6025H108.811V35H110.34V28.5137C110.34 26.5449 109.048 25.3584 106.736 25.3584C104.715 25.3584 103.273 26.3604 103.027 27.8457L103.019 27.8984H104.548L104.557 27.8721C104.803 27.1338 105.55 26.7119 106.684 26.7119C108.099 26.7119 108.811 27.3447 108.811 28.5137V29.375L106.095 29.542C103.889 29.6738 102.641 30.6494 102.641 32.3369V32.3545C102.641 34.0771 104.003 35.167 105.805 35.167ZM104.205 32.3193V32.3018C104.205 31.3613 104.838 30.8516 106.279 30.7637L108.811 30.6055V31.4668C108.811 32.8203 107.677 33.8398 106.121 33.8398C105.022 33.8398 104.205 33.2773 104.205 32.3193ZM113.135 38.1641H114.664V33.5059H114.805C115.323 34.5166 116.457 35.167 117.758 35.167C120.166 35.167 121.73 33.2422 121.73 30.2715V30.2539C121.73 27.3008 120.157 25.3584 117.758 25.3584C116.439 25.3584 115.385 25.9824 114.805 27.0371H114.664V25.5254H113.135V38.1641ZM117.406 33.8135C115.684 33.8135 114.629 32.46 114.629 30.2715V30.2539C114.629 28.0654 115.684 26.7119 117.406 26.7119C119.138 26.7119 120.166 28.0479 120.166 30.2539V30.2715C120.166 32.4775 119.138 33.8135 117.406 33.8135ZM127.988 35.167C130.221 35.167 131.574 33.9014 131.899 32.6182L131.917 32.5479H130.388L130.353 32.627C130.098 33.1982 129.307 33.8047 128.023 33.8047C126.336 33.8047 125.255 32.6621 125.211 30.7021H132.031V30.1045C132.031 27.2744 130.467 25.3584 127.892 25.3584C125.316 25.3584 123.646 27.3623 123.646 30.2891V30.2979C123.646 33.2686 125.281 35.167 127.988 35.167ZM127.883 26.7207C129.28 26.7207 130.317 27.6084 130.476 29.4805H125.237C125.404 27.6787 126.477 26.7207 127.883 26.7207ZM134.492 35H136.021V21.7637H134.492V35ZM139.599 30.7812H141.058L141.207 22.3086H139.449L139.599 30.7812ZM140.337 35.1582C141.049 35.1582 141.55 34.6484 141.55 33.9365C141.55 33.2158 141.049 32.7061 140.337 32.7061C139.625 32.7061 139.115 33.2158 139.115 33.9365C139.115 34.6484 139.625 35.1582 140.337 35.1582Z" fill="#383D43"/>
</svg>
