<svg width="340" height="39" viewBox="0 0 340 39" fill="none" xmlns="http://www.w3.org/2000/svg">
<path d="M1.61719 14H9.47461V12.5762H3.19922V8.2168H9.14941V6.81055H3.19922V2.74121H9.47461V1.31738H1.61719V14ZM12.1465 14H13.6758V8.39258C13.6758 6.73145 14.6338 5.71191 16.1455 5.71191C17.6572 5.71191 18.3604 6.5293 18.3604 8.23438V14H19.8896V7.86523C19.8896 5.61523 18.7031 4.3584 16.5762 4.3584C15.1787 4.3584 14.291 4.94727 13.8164 5.94922H13.6758V4.52539H12.1465V14ZM24.9873 14H26.5342L30.041 4.52539H28.4238L25.8311 12.3301H25.6904L23.0977 4.52539H21.4805L24.9873 14ZM32.8711 2.69727C33.4512 2.69727 33.9258 2.22266 33.9258 1.64258C33.9258 1.0625 33.4512 0.587891 32.8711 0.587891C32.291 0.587891 31.8164 1.0625 31.8164 1.64258C31.8164 2.22266 32.291 2.69727 32.8711 2.69727ZM32.0977 14H33.627V4.52539H32.0977V14ZM40.377 14.167C42.6094 14.167 43.9629 12.9014 44.2881 11.6182L44.3057 11.5479H42.7764L42.7412 11.627C42.4863 12.1982 41.6953 12.8047 40.4121 12.8047C38.7246 12.8047 37.6436 11.6621 37.5996 9.70215H44.4199V9.10449C44.4199 6.27441 42.8555 4.3584 40.2803 4.3584C37.7051 4.3584 36.0352 6.3623 36.0352 9.28906V9.29785C36.0352 12.2686 37.6699 14.167 40.377 14.167ZM40.2715 5.7207C41.6689 5.7207 42.7061 6.6084 42.8643 8.48047H37.626C37.793 6.67871 38.8652 5.7207 40.2715 5.7207ZM55.1074 14.167C57.2607 14.167 58.9043 12.998 58.9043 11.3105V11.293C58.9043 9.93945 58.043 9.16602 56.2588 8.73535L54.7998 8.38379C53.6836 8.11133 53.209 7.70703 53.209 7.06543V7.04785C53.209 6.21289 54.0352 5.63281 55.1602 5.63281C56.3027 5.63281 57.041 6.15137 57.2432 6.89844H58.7461C58.5352 5.35156 57.1553 4.3584 55.1689 4.3584C53.1562 4.3584 51.6445 5.54492 51.6445 7.11816V7.12695C51.6445 8.48926 52.4443 9.2627 54.2197 9.68457L55.6875 10.0361C56.8564 10.3174 57.3398 10.7656 57.3398 11.4072V11.4248C57.3398 12.2861 56.4346 12.8926 55.1602 12.8926C53.9473 12.8926 53.1914 12.374 52.9365 11.583H51.3721C51.5479 13.1475 52.998 14.167 55.1074 14.167ZM64.4502 14.167C65.8389 14.167 66.7969 13.5957 67.2627 12.585H67.4033V14H68.9326V4.52539H67.4033V10.1328C67.4033 11.7939 66.5156 12.8135 64.8457 12.8135C63.334 12.8135 62.7188 11.9961 62.7188 10.291V4.52539H61.1895V10.6602C61.1895 12.9014 62.2969 14.167 64.4502 14.167ZM74.3906 14.167C75.665 14.167 76.6582 13.6133 77.2559 12.6025H77.3965V14H78.9258V7.51367C78.9258 5.54492 77.6338 4.3584 75.3223 4.3584C73.3008 4.3584 71.8594 5.36035 71.6133 6.8457L71.6045 6.89844H73.1338L73.1426 6.87207C73.3887 6.13379 74.1357 5.71191 75.2695 5.71191C76.6846 5.71191 77.3965 6.34473 77.3965 7.51367V8.375L74.6807 8.54199C72.4746 8.67383 71.2266 9.64941 71.2266 11.3369V11.3545C71.2266 13.0771 72.5889 14.167 74.3906 14.167ZM72.791 11.3193V11.3018C72.791 10.3613 73.4238 9.85156 74.8652 9.76367L77.3965 9.60547V10.4668C77.3965 11.8203 76.2627 12.8398 74.707 12.8398C73.6084 12.8398 72.791 12.2773 72.791 11.3193ZM90.2812 14.167C91.5996 14.167 92.6543 13.543 93.2344 12.4883H93.375V14H94.9043V0.763672H93.375V6.01953H93.2344C92.7158 5.00879 91.582 4.3584 90.2812 4.3584C87.873 4.3584 86.3086 6.2832 86.3086 9.25391V9.27148C86.3086 12.2246 87.8818 14.167 90.2812 14.167ZM90.6328 12.8135C88.9014 12.8135 87.873 11.4775 87.873 9.27148V9.25391C87.873 7.04785 88.9014 5.71191 90.6328 5.71191C92.3555 5.71191 93.4102 7.06543 93.4102 9.25391V9.27148C93.4102 11.46 92.3555 12.8135 90.6328 12.8135ZM102.199 3.20703L104.229 0.21875H102.419L100.863 3.20703H102.199ZM101.013 14.167C102.401 14.167 103.359 13.5957 103.825 12.585H103.966V14H105.495V4.52539H103.966V10.1328C103.966 11.7939 103.078 12.8135 101.408 12.8135C99.8965 12.8135 99.2812 11.9961 99.2812 10.291V4.52539H97.752V10.6602C97.752 12.9014 98.8594 14.167 101.013 14.167ZM111.032 14H112.579L116.086 4.52539H114.469L111.876 12.3301H111.735L109.143 4.52539H107.525L111.032 14ZM118.916 2.69727C119.496 2.69727 119.971 2.22266 119.971 1.64258C119.971 1.0625 119.496 0.587891 118.916 0.587891C118.336 0.587891 117.861 1.0625 117.861 1.64258C117.861 2.22266 118.336 2.69727 118.916 2.69727ZM118.143 14H119.672V4.52539H118.143V14ZM126.053 14.167C127.371 14.167 128.426 13.543 129.006 12.4883H129.146V14H130.676V0.763672H129.146V6.01953H129.006C128.487 5.00879 127.354 4.3584 126.053 4.3584C123.645 4.3584 122.08 6.2832 122.08 9.25391V9.27148C122.08 12.2246 123.653 14.167 126.053 14.167ZM126.404 12.8135C124.673 12.8135 123.645 11.4775 123.645 9.27148V9.25391C123.645 7.04785 124.673 5.71191 126.404 5.71191C128.127 5.71191 129.182 7.06543 129.182 9.25391V9.27148C129.182 11.46 128.127 12.8135 126.404 12.8135ZM136.213 14.167C137.487 14.167 138.48 13.6133 139.078 12.6025H139.219V14H140.748V7.51367C140.748 5.54492 139.456 4.3584 137.145 4.3584C135.123 4.3584 133.682 5.36035 133.436 6.8457L133.427 6.89844H134.956L134.965 6.87207C135.211 6.13379 135.958 5.71191 137.092 5.71191C138.507 5.71191 139.219 6.34473 139.219 7.51367V8.375L136.503 8.54199C134.297 8.67383 133.049 9.64941 133.049 11.3369V11.3545C133.049 13.0771 134.411 14.167 136.213 14.167ZM134.613 11.3193V11.3018C134.613 10.3613 135.246 9.85156 136.688 9.76367L139.219 9.60547V10.4668C139.219 11.8203 138.085 12.8398 136.529 12.8398C135.431 12.8398 134.613 12.2773 134.613 11.3193ZM152.473 14.167C154.705 14.167 156.059 12.9014 156.384 11.6182L156.401 11.5479H154.872L154.837 11.627C154.582 12.1982 153.791 12.8047 152.508 12.8047C150.82 12.8047 149.739 11.6621 149.695 9.70215H156.516V9.10449C156.516 6.27441 154.951 4.3584 152.376 4.3584C149.801 4.3584 148.131 6.3623 148.131 9.28906V9.29785C148.131 12.2686 149.766 14.167 152.473 14.167ZM152.367 5.7207C153.765 5.7207 154.802 6.6084 154.96 8.48047H149.722C149.889 6.67871 150.961 5.7207 152.367 5.7207ZM163.951 14H165.48V8.39258C165.48 6.73145 166.438 5.71191 167.95 5.71191C169.462 5.71191 170.165 6.5293 170.165 8.23438V14H171.694V7.86523C171.694 5.61523 170.508 4.3584 168.381 4.3584C166.983 4.3584 166.096 4.94727 165.621 5.94922H165.48V4.52539H163.951V14ZM178.356 14.167C181.055 14.167 182.725 12.3037 182.725 9.27148V9.25391C182.725 6.21289 181.055 4.3584 178.356 4.3584C175.658 4.3584 173.988 6.21289 173.988 9.25391V9.27148C173.988 12.3037 175.658 14.167 178.356 14.167ZM178.356 12.8135C176.563 12.8135 175.553 11.5039 175.553 9.27148V9.25391C175.553 7.0127 176.563 5.71191 178.356 5.71191C180.149 5.71191 181.16 7.0127 181.16 9.25391V9.27148C181.16 11.5039 180.149 12.8135 178.356 12.8135ZM188.35 14.167C190.503 14.167 192.146 12.998 192.146 11.3105V11.293C192.146 9.93945 191.285 9.16602 189.501 8.73535L188.042 8.38379C186.926 8.11133 186.451 7.70703 186.451 7.06543V7.04785C186.451 6.21289 187.277 5.63281 188.402 5.63281C189.545 5.63281 190.283 6.15137 190.485 6.89844H191.988C191.777 5.35156 190.397 4.3584 188.411 4.3584C186.398 4.3584 184.887 5.54492 184.887 7.11816V7.12695C184.887 8.48926 185.687 9.2627 187.462 9.68457L188.93 10.0361C190.099 10.3174 190.582 10.7656 190.582 11.4072V11.4248C190.582 12.2861 189.677 12.8926 188.402 12.8926C187.189 12.8926 186.434 12.374 186.179 11.583H184.614C184.79 13.1475 186.24 14.167 188.35 14.167ZM197.596 14.167C199.749 14.167 201.393 12.998 201.393 11.3105V11.293C201.393 9.93945 200.531 9.16602 198.747 8.73535L197.288 8.38379C196.172 8.11133 195.697 7.70703 195.697 7.06543V7.04785C195.697 6.21289 196.523 5.63281 197.648 5.63281C198.791 5.63281 199.529 6.15137 199.731 6.89844H201.234C201.023 5.35156 199.644 4.3584 197.657 4.3584C195.645 4.3584 194.133 5.54492 194.133 7.11816V7.12695C194.133 8.48926 194.933 9.2627 196.708 9.68457L198.176 10.0361C199.345 10.3174 199.828 10.7656 199.828 11.4072V11.4248C199.828 12.2861 198.923 12.8926 197.648 12.8926C196.436 12.8926 195.68 12.374 195.425 11.583H193.86C194.036 13.1475 195.486 14.167 197.596 14.167ZM206.367 14.167C207.642 14.167 208.635 13.6133 209.232 12.6025H209.373V14H210.902V7.51367C210.902 5.54492 209.61 4.3584 207.299 4.3584C205.277 4.3584 203.836 5.36035 203.59 6.8457L203.581 6.89844H205.11L205.119 6.87207C205.365 6.13379 206.112 5.71191 207.246 5.71191C208.661 5.71191 209.373 6.34473 209.373 7.51367V8.375L206.657 8.54199C204.451 8.67383 203.203 9.64941 203.203 11.3369V11.3545C203.203 13.0771 204.565 14.167 206.367 14.167ZM204.768 11.3193V11.3018C204.768 10.3613 205.4 9.85156 206.842 9.76367L209.373 9.60547V10.4668C209.373 11.8203 208.239 12.8398 206.684 12.8398C205.585 12.8398 204.768 12.2773 204.768 11.3193ZM222.627 14.167C224.859 14.167 226.213 12.9014 226.538 11.6182L226.556 11.5479H225.026L224.991 11.627C224.736 12.1982 223.945 12.8047 222.662 12.8047C220.975 12.8047 219.894 11.6621 219.85 9.70215H226.67V9.10449C226.67 6.27441 225.105 4.3584 222.53 4.3584C219.955 4.3584 218.285 6.3623 218.285 9.28906V9.29785C218.285 12.2686 219.92 14.167 222.627 14.167ZM222.521 5.7207C223.919 5.7207 224.956 6.6084 225.114 8.48047H219.876C220.043 6.67871 221.115 5.7207 222.521 5.7207ZM235.652 17.1641H237.182V4.52539H235.652V6.10742H235.547C234.94 5.02637 233.824 4.3584 232.55 4.3584C230.133 4.3584 228.568 6.2832 228.568 9.25391V9.27148C228.568 12.2246 230.142 14.167 232.55 14.167C233.903 14.167 234.993 13.5781 235.512 12.5762H235.652V17.1641ZM232.91 12.8135C231.17 12.8135 230.133 11.4775 230.133 9.27148V9.25391C230.133 7.04785 231.17 5.71191 232.901 5.71191C234.615 5.71191 235.696 7.07422 235.696 9.25391V9.27148C235.696 11.4424 234.615 12.8135 232.91 12.8135ZM243.185 14.167C244.573 14.167 245.531 13.5957 245.997 12.585H246.138V14H247.667V4.52539H246.138V10.1328C246.138 11.7939 245.25 12.8135 243.58 12.8135C242.068 12.8135 241.453 11.9961 241.453 10.291V4.52539H239.924V10.6602C239.924 12.9014 241.031 14.167 243.185 14.167ZM251.332 2.69727C251.912 2.69727 252.387 2.22266 252.387 1.64258C252.387 1.0625 251.912 0.587891 251.332 0.587891C250.752 0.587891 250.277 1.0625 250.277 1.64258C250.277 2.22266 250.752 2.69727 251.332 2.69727ZM250.559 14H252.088V4.52539H250.559V14ZM254.971 17.1641H256.5V12.5059H256.641C257.159 13.5166 258.293 14.167 259.594 14.167C262.002 14.167 263.566 12.2422 263.566 9.27148V9.25391C263.566 6.30078 261.993 4.3584 259.594 4.3584C258.275 4.3584 257.221 4.98242 256.641 6.03711H256.5V4.52539H254.971V17.1641ZM259.242 12.8135C257.52 12.8135 256.465 11.46 256.465 9.27148V9.25391C256.465 7.06543 257.52 5.71191 259.242 5.71191C260.974 5.71191 262.002 7.04785 262.002 9.25391V9.27148C262.002 11.4775 260.974 12.8135 259.242 12.8135ZM269.824 14.167C272.057 14.167 273.41 12.9014 273.735 11.6182L273.753 11.5479H272.224L272.188 11.627C271.934 12.1982 271.143 12.8047 269.859 12.8047C268.172 12.8047 267.091 11.6621 267.047 9.70215H273.867V9.10449C273.867 6.27441 272.303 4.3584 269.728 4.3584C267.152 4.3584 265.482 6.3623 265.482 9.28906V9.29785C265.482 12.2686 267.117 14.167 269.824 14.167ZM269.719 5.7207C271.116 5.7207 272.153 6.6084 272.312 8.48047H267.073C267.24 6.67871 268.312 5.7207 269.719 5.7207ZM285.17 14.167C287.402 14.167 288.756 12.9014 289.081 11.6182L289.099 11.5479H287.569L287.534 11.627C287.279 12.1982 286.488 12.8047 285.205 12.8047C283.518 12.8047 282.437 11.6621 282.393 9.70215H289.213V9.10449C289.213 6.27441 287.648 4.3584 285.073 4.3584C282.498 4.3584 280.828 6.3623 280.828 9.28906V9.29785C280.828 12.2686 282.463 14.167 285.17 14.167ZM285.064 5.7207C286.462 5.7207 287.499 6.6084 287.657 8.48047H282.419C282.586 6.67871 283.658 5.7207 285.064 5.7207ZM291.586 14H293.115V8.39258C293.115 6.73145 294.073 5.71191 295.585 5.71191C297.097 5.71191 297.8 6.5293 297.8 8.23438V14H299.329V7.86523C299.329 5.61523 298.143 4.3584 296.016 4.3584C294.618 4.3584 293.73 4.94727 293.256 5.94922H293.115V4.52539H291.586V14ZM305.464 14.0703C305.763 14.0703 306.053 14.0352 306.352 13.9824V12.6816C306.07 12.708 305.921 12.7168 305.648 12.7168C304.664 12.7168 304.277 12.2686 304.277 11.1523V5.79102H306.352V4.52539H304.277V2.07324H302.695V4.52539H301.201V5.79102H302.695V11.5391C302.695 13.3496 303.513 14.0703 305.464 14.0703ZM308.637 14H310.166V8.12891C310.166 6.74023 311.203 5.81738 312.662 5.81738C312.996 5.81738 313.286 5.85254 313.603 5.90527V4.41992C313.453 4.39355 313.128 4.3584 312.838 4.3584C311.555 4.3584 310.667 4.93848 310.307 5.93164H310.166V4.52539H308.637V14ZM318.094 14.167C319.368 14.167 320.361 13.6133 320.959 12.6025H321.1V14H322.629V7.51367C322.629 5.54492 321.337 4.3584 319.025 4.3584C317.004 4.3584 315.562 5.36035 315.316 6.8457L315.308 6.89844H316.837L316.846 6.87207C317.092 6.13379 317.839 5.71191 318.973 5.71191C320.388 5.71191 321.1 6.34473 321.1 7.51367V8.375L318.384 8.54199C316.178 8.67383 314.93 9.64941 314.93 11.3369V11.3545C314.93 13.0771 316.292 14.167 318.094 14.167ZM316.494 11.3193V11.3018C316.494 10.3613 317.127 9.85156 318.568 9.76367L321.1 9.60547V10.4668C321.1 11.8203 319.966 12.8398 318.41 12.8398C317.312 12.8398 316.494 12.2773 316.494 11.3193ZM325.424 14H326.953V8.12891C326.953 6.74023 327.99 5.81738 329.449 5.81738C329.783 5.81738 330.073 5.85254 330.39 5.90527V4.41992C330.24 4.39355 329.915 4.3584 329.625 4.3584C328.342 4.3584 327.454 4.93848 327.094 5.93164H326.953V4.52539H325.424V14ZM336.393 3.20703L338.423 0.21875H336.612L335.057 3.20703H336.393ZM334.881 14.167C336.155 14.167 337.148 13.6133 337.746 12.6025H337.887V14H339.416V7.51367C339.416 5.54492 338.124 4.3584 335.812 4.3584C333.791 4.3584 332.35 5.36035 332.104 6.8457L332.095 6.89844H333.624L333.633 6.87207C333.879 6.13379 334.626 5.71191 335.76 5.71191C337.175 5.71191 337.887 6.34473 337.887 7.51367V8.375L335.171 8.54199C332.965 8.67383 331.717 9.64941 331.717 11.3369V11.3545C331.717 13.0771 333.079 14.167 334.881 14.167ZM333.281 11.3193V11.3018C333.281 10.3613 333.914 9.85156 335.355 9.76367L337.887 9.60547V10.4668C337.887 11.8203 336.753 12.8398 335.197 12.8398C334.099 12.8398 333.281 12.2773 333.281 11.3193ZM5.29102 35.167C7.52344 35.167 8.87695 33.9014 9.20215 32.6182L9.21973 32.5479H7.69043L7.65527 32.627C7.40039 33.1982 6.60938 33.8047 5.32617 33.8047C3.63867 33.8047 2.55762 32.6621 2.51367 30.7021H9.33398V30.1045C9.33398 27.2744 7.76953 25.3584 5.19434 25.3584C2.61914 25.3584 0.949219 27.3623 0.949219 30.2891V30.2979C0.949219 33.2686 2.58398 35.167 5.29102 35.167ZM5.18555 26.7207C6.58301 26.7207 7.62012 27.6084 7.77832 29.4805H2.54004C2.70703 27.6787 3.7793 26.7207 5.18555 26.7207ZM11.707 35H13.2363V29.1289C13.2363 27.793 14.1768 26.7119 15.416 26.7119C16.6113 26.7119 17.3848 27.4414 17.3848 28.5664V35H18.9141V28.9092C18.9141 27.7051 19.7842 26.7119 21.1025 26.7119C22.4385 26.7119 23.0801 27.4062 23.0801 28.8037V35H24.6094V28.4521C24.6094 26.4658 23.5283 25.3584 21.5947 25.3584C20.2852 25.3584 19.2041 26.0176 18.6943 27.0195H18.5537C18.1143 26.0352 17.2178 25.3584 15.9346 25.3584C14.6953 25.3584 13.7988 25.9473 13.377 26.9668H13.2363V25.5254H11.707V35ZM36.3076 35.167C38.584 35.167 39.8584 33.9453 40.2451 32.2314L40.2627 32.1348L38.751 32.1436L38.7334 32.1963C38.3818 33.251 37.5732 33.8135 36.2988 33.8135C34.6113 33.8135 33.5215 32.416 33.5215 30.2363V30.2188C33.5215 28.083 34.5938 26.7119 36.2988 26.7119C37.6611 26.7119 38.5049 27.4678 38.7422 28.3994L38.751 28.4258H40.2715L40.2627 28.373C39.9814 26.6855 38.6016 25.3584 36.2988 25.3584C33.6445 25.3584 31.957 27.2744 31.957 30.2188V30.2363C31.957 33.2422 33.6533 35.167 36.3076 35.167ZM46.3975 35.167C49.0957 35.167 50.7656 33.3037 50.7656 30.2715V30.2539C50.7656 27.2129 49.0957 25.3584 46.3975 25.3584C43.6992 25.3584 42.0293 27.2129 42.0293 30.2539V30.2715C42.0293 33.3037 43.6992 35.167 46.3975 35.167ZM46.3975 33.8135C44.6045 33.8135 43.5938 32.5039 43.5938 30.2715V30.2539C43.5938 28.0127 44.6045 26.7119 46.3975 26.7119C48.1904 26.7119 49.2012 28.0127 49.2012 30.2539V30.2715C49.2012 32.5039 48.1904 33.8135 46.3975 33.8135ZM53.1387 35H54.668V29.3926C54.668 27.7314 55.626 26.7119 57.1377 26.7119C58.6494 26.7119 59.3525 27.5293 59.3525 29.2344V35H60.8818V28.8652C60.8818 26.6152 59.6953 25.3584 57.5684 25.3584C56.1709 25.3584 55.2832 25.9473 54.8086 26.9492H54.668V25.5254H53.1387V35ZM67.0166 35.0703C67.3154 35.0703 67.6055 35.0352 67.9043 34.9824V33.6816C67.623 33.708 67.4736 33.7168 67.2012 33.7168C66.2168 33.7168 65.8301 33.2686 65.8301 32.1523V26.791H67.9043V25.5254H65.8301V23.0732H64.248V25.5254H62.7539V26.791H64.248V32.5391C64.248 34.3496 65.0654 35.0703 67.0166 35.0703ZM72.791 35.167C74.0654 35.167 75.0586 34.6133 75.6562 33.6025H75.7969V35H77.3262V28.5137C77.3262 26.5449 76.0342 25.3584 73.7227 25.3584C71.7012 25.3584 70.2598 26.3604 70.0137 27.8457L70.0049 27.8984H71.5342L71.543 27.8721C71.7891 27.1338 72.5361 26.7119 73.6699 26.7119C75.085 26.7119 75.7969 27.3447 75.7969 28.5137V29.375L73.0811 29.542C70.875 29.6738 69.627 30.6494 69.627 32.3369V32.3545C69.627 34.0771 70.9893 35.167 72.791 35.167ZM71.1914 32.3193V32.3018C71.1914 31.3613 71.8242 30.8516 73.2656 30.7637L75.7969 30.6055V31.4668C75.7969 32.8203 74.6631 33.8398 73.1074 33.8398C72.0088 33.8398 71.1914 33.2773 71.1914 32.3193ZM83.4873 35.0703C83.7861 35.0703 84.0762 35.0352 84.375 34.9824V33.6816C84.0938 33.708 83.9443 33.7168 83.6719 33.7168C82.6875 33.7168 82.3008 33.2686 82.3008 32.1523V26.791H84.375V25.5254H82.3008V23.0732H80.7188V25.5254H79.2246V26.791H80.7188V32.5391C80.7188 34.3496 81.5361 35.0703 83.4873 35.0703ZM90.4131 35.167C93.1113 35.167 94.7812 33.3037 94.7812 30.2715V30.2539C94.7812 27.2129 93.1113 25.3584 90.4131 25.3584C87.7148 25.3584 86.0449 27.2129 86.0449 30.2539V30.2715C86.0449 33.3037 87.7148 35.167 90.4131 35.167ZM90.4131 33.8135C88.6201 33.8135 87.6094 32.5039 87.6094 30.2715V30.2539C87.6094 28.0127 88.6201 26.7119 90.4131 26.7119C92.2061 26.7119 93.2168 28.0127 93.2168 30.2539V30.2715C93.2168 32.5039 92.2061 33.8135 90.4131 33.8135ZM106.11 35.167C108.809 35.167 110.479 33.3037 110.479 30.2715V30.2539C110.479 27.2129 108.809 25.3584 106.11 25.3584C103.412 25.3584 101.742 27.2129 101.742 30.2539V30.2715C101.742 33.3037 103.412 35.167 106.11 35.167ZM106.11 33.8135C104.317 33.8135 103.307 32.5039 103.307 30.2715V30.2539C103.307 28.0127 104.317 26.7119 106.11 26.7119C107.903 26.7119 108.914 28.0127 108.914 30.2539V30.2715C108.914 32.5039 107.903 33.8135 106.11 33.8135ZM117.914 35H119.443V29.1289C119.443 27.793 120.384 26.7119 121.623 26.7119C122.818 26.7119 123.592 27.4414 123.592 28.5664V35H125.121V28.9092C125.121 27.7051 125.991 26.7119 127.31 26.7119C128.646 26.7119 129.287 27.4062 129.287 28.8037V35H130.816V28.4521C130.816 26.4658 129.735 25.3584 127.802 25.3584C126.492 25.3584 125.411 26.0176 124.901 27.0195H124.761C124.321 26.0352 123.425 25.3584 122.142 25.3584C120.902 25.3584 120.006 25.9473 119.584 26.9668H119.443V25.5254H117.914V35ZM136.178 35.167C137.452 35.167 138.445 34.6133 139.043 33.6025H139.184V35H140.713V28.5137C140.713 26.5449 139.421 25.3584 137.109 25.3584C135.088 25.3584 133.646 26.3604 133.4 27.8457L133.392 27.8984H134.921L134.93 27.8721C135.176 27.1338 135.923 26.7119 137.057 26.7119C138.472 26.7119 139.184 27.3447 139.184 28.5137V29.375L136.468 29.542C134.262 29.6738 133.014 30.6494 133.014 32.3369V32.3545C133.014 34.0771 134.376 35.167 136.178 35.167ZM134.578 32.3193V32.3018C134.578 31.3613 135.211 30.8516 136.652 30.7637L139.184 30.6055V31.4668C139.184 32.8203 138.05 33.8398 136.494 33.8398C135.396 33.8398 134.578 33.2773 134.578 32.3193ZM144.316 23.6973C144.896 23.6973 145.371 23.2227 145.371 22.6426C145.371 22.0625 144.896 21.5879 144.316 21.5879C143.736 21.5879 143.262 22.0625 143.262 22.6426C143.262 23.2227 143.736 23.6973 144.316 23.6973ZM143.543 35H145.072V25.5254H143.543V35ZM151.207 35.167C153.36 35.167 155.004 33.998 155.004 32.3105V32.293C155.004 30.9395 154.143 30.166 152.358 29.7354L150.899 29.3838C149.783 29.1113 149.309 28.707 149.309 28.0654V28.0479C149.309 27.2129 150.135 26.6328 151.26 26.6328C152.402 26.6328 153.141 27.1514 153.343 27.8984H154.846C154.635 26.3516 153.255 25.3584 151.269 25.3584C149.256 25.3584 147.744 26.5449 147.744 28.1182V28.127C147.744 29.4893 148.544 30.2627 150.319 30.6846L151.787 31.0361C152.956 31.3174 153.439 31.7656 153.439 32.4072V32.4248C153.439 33.2861 152.534 33.8926 151.26 33.8926C150.047 33.8926 149.291 33.374 149.036 32.583H147.472C147.647 34.1475 149.098 35.167 151.207 35.167ZM162.439 35H163.969V29.1289C163.969 27.7402 165.006 26.8174 166.465 26.8174C166.799 26.8174 167.089 26.8525 167.405 26.9053V25.4199C167.256 25.3936 166.931 25.3584 166.641 25.3584C165.357 25.3584 164.47 25.9385 164.109 26.9316H163.969V25.5254H162.439V35ZM173.408 24.207L175.438 21.2188H173.628L172.072 24.207H173.408ZM171.896 35.167C173.171 35.167 174.164 34.6133 174.762 33.6025H174.902V35H176.432V28.5137C176.432 26.5449 175.14 25.3584 172.828 25.3584C170.807 25.3584 169.365 26.3604 169.119 27.8457L169.11 27.8984H170.64L170.648 27.8721C170.895 27.1338 171.642 26.7119 172.775 26.7119C174.19 26.7119 174.902 27.3447 174.902 28.5137V29.375L172.187 29.542C169.98 29.6738 168.732 30.6494 168.732 32.3369V32.3545C168.732 34.0771 170.095 35.167 171.896 35.167ZM170.297 32.3193V32.3018C170.297 31.3613 170.93 30.8516 172.371 30.7637L174.902 30.6055V31.4668C174.902 32.8203 173.769 33.8398 172.213 33.8398C171.114 33.8398 170.297 33.2773 170.297 32.3193ZM179.227 38.1641H180.756V33.5059H180.896C181.415 34.5166 182.549 35.167 183.85 35.167C186.258 35.167 187.822 33.2422 187.822 30.2715V30.2539C187.822 27.3008 186.249 25.3584 183.85 25.3584C182.531 25.3584 181.477 25.9824 180.896 27.0371H180.756V25.5254H179.227V38.1641ZM183.498 33.8135C181.775 33.8135 180.721 32.46 180.721 30.2715V30.2539C180.721 28.0654 181.775 26.7119 183.498 26.7119C185.229 26.7119 186.258 28.0479 186.258 30.2539V30.2715C186.258 32.4775 185.229 33.8135 183.498 33.8135ZM191.021 23.6973C191.602 23.6973 192.076 23.2227 192.076 22.6426C192.076 22.0625 191.602 21.5879 191.021 21.5879C190.441 21.5879 189.967 22.0625 189.967 22.6426C189.967 23.2227 190.441 23.6973 191.021 23.6973ZM190.248 35H191.777V25.5254H190.248V35ZM198.158 35.167C199.477 35.167 200.531 34.543 201.111 33.4883H201.252V35H202.781V21.7637H201.252V27.0195H201.111C200.593 26.0088 199.459 25.3584 198.158 25.3584C195.75 25.3584 194.186 27.2832 194.186 30.2539V30.2715C194.186 33.2246 195.759 35.167 198.158 35.167ZM198.51 33.8135C196.778 33.8135 195.75 32.4775 195.75 30.2715V30.2539C195.75 28.0479 196.778 26.7119 198.51 26.7119C200.232 26.7119 201.287 28.0654 201.287 30.2539V30.2715C201.287 32.46 200.232 33.8135 198.51 33.8135ZM209.61 35.167C212.309 35.167 213.979 33.3037 213.979 30.2715V30.2539C213.979 27.2129 212.309 25.3584 209.61 25.3584C206.912 25.3584 205.242 27.2129 205.242 30.2539V30.2715C205.242 33.3037 206.912 35.167 209.61 35.167ZM209.61 33.8135C207.817 33.8135 206.807 32.5039 206.807 30.2715V30.2539C206.807 28.0127 207.817 26.7119 209.61 26.7119C211.403 26.7119 212.414 28.0127 212.414 30.2539V30.2715C212.414 32.5039 211.403 33.8135 209.61 33.8135ZM221.414 38.1641H222.943V33.5059H223.084C223.603 34.5166 224.736 35.167 226.037 35.167C228.445 35.167 230.01 33.2422 230.01 30.2715V30.2539C230.01 27.3008 228.437 25.3584 226.037 25.3584C224.719 25.3584 223.664 25.9824 223.084 27.0371H222.943V25.5254H221.414V38.1641ZM225.686 33.8135C223.963 33.8135 222.908 32.46 222.908 30.2715V30.2539C222.908 28.0654 223.963 26.7119 225.686 26.7119C227.417 26.7119 228.445 28.0479 228.445 30.2539V30.2715C228.445 32.4775 227.417 33.8135 225.686 33.8135ZM236.294 35.167C238.992 35.167 240.662 33.3037 240.662 30.2715V30.2539C240.662 27.2129 238.992 25.3584 236.294 25.3584C233.596 25.3584 231.926 27.2129 231.926 30.2539V30.2715C231.926 33.3037 233.596 35.167 236.294 35.167ZM236.294 33.8135C234.501 33.8135 233.49 32.5039 233.49 30.2715V30.2539C233.49 28.0127 234.501 26.7119 236.294 26.7119C238.087 26.7119 239.098 28.0127 239.098 30.2539V30.2715C239.098 32.5039 238.087 33.8135 236.294 33.8135ZM246.287 35.167C248.44 35.167 250.084 33.998 250.084 32.3105V32.293C250.084 30.9395 249.223 30.166 247.438 29.7354L245.979 29.3838C244.863 29.1113 244.389 28.707 244.389 28.0654V28.0479C244.389 27.2129 245.215 26.6328 246.34 26.6328C247.482 26.6328 248.221 27.1514 248.423 27.8984H249.926C249.715 26.3516 248.335 25.3584 246.349 25.3584C244.336 25.3584 242.824 26.5449 242.824 28.1182V28.127C242.824 29.4893 243.624 30.2627 245.399 30.6846L246.867 31.0361C248.036 31.3174 248.52 31.7656 248.52 32.4072V32.4248C248.52 33.2861 247.614 33.8926 246.34 33.8926C245.127 33.8926 244.371 33.374 244.116 32.583H242.552C242.728 34.1475 244.178 35.167 246.287 35.167ZM255.533 35.167C257.687 35.167 259.33 33.998 259.33 32.3105V32.293C259.33 30.9395 258.469 30.166 256.685 29.7354L255.226 29.3838C254.109 29.1113 253.635 28.707 253.635 28.0654V28.0479C253.635 27.2129 254.461 26.6328 255.586 26.6328C256.729 26.6328 257.467 27.1514 257.669 27.8984H259.172C258.961 26.3516 257.581 25.3584 255.595 25.3584C253.582 25.3584 252.07 26.5449 252.07 28.1182V28.127C252.07 29.4893 252.87 30.2627 254.646 30.6846L256.113 31.0361C257.282 31.3174 257.766 31.7656 257.766 32.4072V32.4248C257.766 33.2861 256.86 33.8926 255.586 33.8926C254.373 33.8926 253.617 33.374 253.362 32.583H251.798C251.974 34.1475 253.424 35.167 255.533 35.167ZM263.092 24.207L265.122 21.2188H263.312L261.756 24.207H263.092ZM261.738 35H263.268V25.5254H261.738V35ZM268.831 35H270.378L273.885 25.5254H272.268L269.675 33.3301H269.534L266.941 25.5254H265.324L268.831 35ZM279.422 35.167C281.654 35.167 283.008 33.9014 283.333 32.6182L283.351 32.5479H281.821L281.786 32.627C281.531 33.1982 280.74 33.8047 279.457 33.8047C277.77 33.8047 276.688 32.6621 276.645 30.7021H283.465V30.1045C283.465 27.2744 281.9 25.3584 279.325 25.3584C276.75 25.3584 275.08 27.3623 275.08 30.2891V30.2979C275.08 33.2686 276.715 35.167 279.422 35.167ZM279.316 26.7207C280.714 26.7207 281.751 27.6084 281.909 29.4805H276.671C276.838 27.6787 277.91 26.7207 279.316 26.7207ZM285.926 35H287.455V21.7637H285.926V35Z" fill="#383D43"/>
</svg>
