<svg width="594" height="642" viewBox="0 0 594 642" fill="none" xmlns="http://www.w3.org/2000/svg">
<path d="M496.208 297.975L496.208 492.785L592.499 396.735L592.499 201.925L496.208 297.975Z" stroke="#73C04A" stroke-width="3"/>
<path d="M493.5 693.5L493.5 497.5L297.5 497.5L297.5 693.5L493.5 693.5Z" stroke="#73C04A" stroke-width="3"/>
<path d="M592.5 197.5L592.5 1.49988L397.676 1.49988L396.5 2.83159L396.5 197.5L592.5 197.5Z" stroke="#73C04A" stroke-width="3"/>
<path d="M97.7921 694.025L97.7921 499.215L1.50127 595.265L1.50125 790.076L97.7921 694.025Z" stroke="#73C04A" stroke-width="3"/>
<path d="M395.791 198.425L395.791 3.61493L299.501 99.6652L299.501 294.475L395.791 198.425Z" stroke="#73C04A" stroke-width="3"/>
<path d="M100.5 298.5L100.5 494.5L296.5 494.5L296.5 298.5L100.5 298.5Z" stroke="#73C04A" stroke-width="3"/>
</svg>
