<svg width="175" height="15" viewBox="0 0 175 15" fill="none" xmlns="http://www.w3.org/2000/svg">
<path d="M0.4375 12H7.42188V10.7344H1.84375V6.85938H7.13281V5.60938H1.84375V1.99219H7.42188V0.726562H0.4375V12ZM12.6875 12.1484C14.6016 12.1484 16.0625 11.1094 16.0625 9.60938V9.59375C16.0625 8.39062 15.2969 7.70312 13.7109 7.32031L12.4141 7.00781C11.4219 6.76562 11 6.40625 11 5.83594V5.82031C11 5.07812 11.7344 4.5625 12.7344 4.5625C13.75 4.5625 14.4062 5.02344 14.5859 5.6875H15.9219C15.7344 4.3125 14.5078 3.42969 12.7422 3.42969C10.9531 3.42969 9.60938 4.48438 9.60938 5.88281V5.89062C9.60938 7.10156 10.3203 7.78906 11.8984 8.16406L13.2031 8.47656C14.2422 8.72656 14.6719 9.125 14.6719 9.69531V9.71094C14.6719 10.4766 13.8672 11.0156 12.7344 11.0156C11.6562 11.0156 10.9844 10.5547 10.7578 9.85156H9.36719C9.52344 11.2422 10.8125 12.1484 12.6875 12.1484ZM21.6172 12.1484C23.6406 12.1484 24.7734 11.0625 25.1172 9.53906L25.1328 9.45312L23.7891 9.46094L23.7734 9.50781C23.4609 10.4453 22.7422 10.9453 21.6094 10.9453C20.1094 10.9453 19.1406 9.70312 19.1406 7.76562V7.75C19.1406 5.85156 20.0938 4.63281 21.6094 4.63281C22.8203 4.63281 23.5703 5.30469 23.7812 6.13281L23.7891 6.15625H25.1406L25.1328 6.10938C24.8828 4.60938 23.6562 3.42969 21.6094 3.42969C19.25 3.42969 17.75 5.13281 17.75 7.75V7.76562C17.75 10.4375 19.2578 12.1484 21.6172 12.1484ZM27.125 12H28.4844V6.78125C28.4844 5.54688 29.4062 4.72656 30.7031 4.72656C31 4.72656 31.2578 4.75781 31.5391 4.80469V3.48438C31.4062 3.46094 31.1172 3.42969 30.8594 3.42969C29.7188 3.42969 28.9297 3.94531 28.6094 4.82812H28.4844V3.57812H27.125V12ZM36.4219 12.1484C38.4062 12.1484 39.6094 11.0234 39.8984 9.88281L39.9141 9.82031H38.5547L38.5234 9.89062C38.2969 10.3984 37.5938 10.9375 36.4531 10.9375C34.9531 10.9375 33.9922 9.92188 33.9531 8.17969H40.0156V7.64844C40.0156 5.13281 38.625 3.42969 36.3359 3.42969C34.0469 3.42969 32.5625 5.21094 32.5625 7.8125V7.82031C32.5625 10.4609 34.0156 12.1484 36.4219 12.1484ZM36.3281 4.64062C37.5703 4.64062 38.4922 5.42969 38.6328 7.09375H33.9766C34.125 5.49219 35.0781 4.64062 36.3281 4.64062ZM44.3516 12H45.7266L48.8438 3.57812H47.4062L45.1016 10.5156H44.9766L42.6719 3.57812H41.2344L44.3516 12ZM52.6406 12.1484C53.7734 12.1484 54.6562 11.6562 55.1875 10.7578H55.3125V12H56.6719V6.23438C56.6719 4.48438 55.5234 3.42969 53.4688 3.42969C51.6719 3.42969 50.3906 4.32031 50.1719 5.64062L50.1641 5.6875H51.5234L51.5312 5.66406C51.75 5.00781 52.4141 4.63281 53.4219 4.63281C54.6797 4.63281 55.3125 5.19531 55.3125 6.23438V7L52.8984 7.14844C50.9375 7.26562 49.8281 8.13281 49.8281 9.63281V9.64844C49.8281 11.1797 51.0391 12.1484 52.6406 12.1484ZM51.2188 9.61719V9.60156C51.2188 8.76562 51.7812 8.3125 53.0625 8.23438L55.3125 8.09375V8.85938C55.3125 10.0625 54.3047 10.9688 52.9219 10.9688C51.9453 10.9688 51.2188 10.4688 51.2188 9.61719ZM66.5469 12.1484C68.4609 12.1484 69.9219 11.1094 69.9219 9.60938V9.59375C69.9219 8.39062 69.1562 7.70312 67.5703 7.32031L66.2734 7.00781C65.2812 6.76562 64.8594 6.40625 64.8594 5.83594V5.82031C64.8594 5.07812 65.5938 4.5625 66.5938 4.5625C67.6094 4.5625 68.2656 5.02344 68.4453 5.6875H69.7812C69.5938 4.3125 68.3672 3.42969 66.6016 3.42969C64.8125 3.42969 63.4688 4.48438 63.4688 5.88281V5.89062C63.4688 7.10156 64.1797 7.78906 65.7578 8.16406L67.0625 8.47656C68.1016 8.72656 68.5312 9.125 68.5312 9.69531V9.71094C68.5312 10.4766 67.7266 11.0156 66.5938 11.0156C65.5156 11.0156 64.8438 10.5547 64.6172 9.85156H63.2266C63.3828 11.2422 64.6719 12.1484 66.5469 12.1484ZM74.8516 12.1484C76.0859 12.1484 76.9375 11.6406 77.3516 10.7422H77.4766V12H78.8359V3.57812H77.4766V8.5625C77.4766 10.0391 76.6875 10.9453 75.2031 10.9453C73.8594 10.9453 73.3125 10.2188 73.3125 8.70312V3.57812H71.9531V9.03125C71.9531 11.0234 72.9375 12.1484 74.8516 12.1484ZM83.6875 12.1484C84.8203 12.1484 85.7031 11.6562 86.2344 10.7578H86.3594V12H87.7188V6.23438C87.7188 4.48438 86.5703 3.42969 84.5156 3.42969C82.7188 3.42969 81.4375 4.32031 81.2188 5.64062L81.2109 5.6875H82.5703L82.5781 5.66406C82.7969 5.00781 83.4609 4.63281 84.4688 4.63281C85.7266 4.63281 86.3594 5.19531 86.3594 6.23438V7L83.9453 7.14844C81.9844 7.26562 80.875 8.13281 80.875 9.63281V9.64844C80.875 11.1797 82.0859 12.1484 83.6875 12.1484ZM82.2656 9.61719V9.60156C82.2656 8.76562 82.8281 8.3125 84.1094 8.23438L86.3594 8.09375V8.85938C86.3594 10.0625 85.3516 10.9688 83.9688 10.9688C82.9922 10.9688 82.2656 10.4688 82.2656 9.61719ZM94.7031 12H96.0625V6.78125C96.0625 5.59375 96.8984 4.63281 98 4.63281C99.0625 4.63281 99.75 5.28125 99.75 6.28125V12H101.109V6.58594C101.109 5.51562 101.883 4.63281 103.055 4.63281C104.242 4.63281 104.812 5.25 104.812 6.49219V12H106.172V6.17969C106.172 4.41406 105.211 3.42969 103.492 3.42969C102.328 3.42969 101.367 4.01562 100.914 4.90625H100.789C100.398 4.03125 99.6016 3.42969 98.4609 3.42969C97.3594 3.42969 96.5625 3.95312 96.1875 4.85938H96.0625V3.57812H94.7031V12ZM112.062 12.1484C114.047 12.1484 115.25 11.0234 115.539 9.88281L115.555 9.82031H114.195L114.164 9.89062C113.938 10.3984 113.234 10.9375 112.094 10.9375C110.594 10.9375 109.633 9.92188 109.594 8.17969H115.656V7.64844C115.656 5.13281 114.266 3.42969 111.977 3.42969C109.688 3.42969 108.203 5.21094 108.203 7.8125V7.82031C108.203 10.4609 109.656 12.1484 112.062 12.1484ZM111.969 4.64062C113.211 4.64062 114.133 5.42969 114.273 7.09375H109.617C109.766 5.49219 110.719 4.64062 111.969 4.64062ZM117.766 12H119.125V7.01562C119.125 5.53906 119.977 4.63281 121.32 4.63281C122.664 4.63281 123.289 5.35938 123.289 6.875V12H124.648V6.54688C124.648 4.54688 123.594 3.42969 121.703 3.42969C120.461 3.42969 119.672 3.95312 119.25 4.84375H119.125V3.57812H117.766V12ZM130 12.1484C131.914 12.1484 133.375 11.1094 133.375 9.60938V9.59375C133.375 8.39062 132.609 7.70312 131.023 7.32031L129.727 7.00781C128.734 6.76562 128.312 6.40625 128.312 5.83594V5.82031C128.312 5.07812 129.047 4.5625 130.047 4.5625C131.062 4.5625 131.719 5.02344 131.898 5.6875H133.234C133.047 4.3125 131.82 3.42969 130.055 3.42969C128.266 3.42969 126.922 4.48438 126.922 5.88281V5.89062C126.922 7.10156 127.633 7.78906 129.211 8.16406L130.516 8.47656C131.555 8.72656 131.984 9.125 131.984 9.69531V9.71094C131.984 10.4766 131.18 11.0156 130.047 11.0156C128.969 11.0156 128.297 10.5547 128.07 9.85156H126.68C126.836 11.2422 128.125 12.1484 130 12.1484ZM137.797 12.1484C138.93 12.1484 139.812 11.6562 140.344 10.7578H140.469V12H141.828V6.23438C141.828 4.48438 140.68 3.42969 138.625 3.42969C136.828 3.42969 135.547 4.32031 135.328 5.64062L135.32 5.6875H136.68L136.688 5.66406C136.906 5.00781 137.57 4.63281 138.578 4.63281C139.836 4.63281 140.469 5.19531 140.469 6.23438V7L138.055 7.14844C136.094 7.26562 134.984 8.13281 134.984 9.63281V9.64844C134.984 11.1797 136.195 12.1484 137.797 12.1484ZM136.375 9.61719V9.60156C136.375 8.76562 136.938 8.3125 138.219 8.23438L140.469 8.09375V8.85938C140.469 10.0625 139.461 10.9688 138.078 10.9688C137.102 10.9688 136.375 10.4688 136.375 9.61719ZM147.781 14.9688C150.078 14.9688 151.531 13.7656 151.531 11.8828V3.57812H150.172V4.96875H150.078C149.562 4.01562 148.641 3.42969 147.453 3.42969C145.25 3.42969 143.891 5.14062 143.891 7.5V7.51562C143.891 9.875 145.242 11.5625 147.422 11.5625C148.578 11.5625 149.531 11.0391 150.062 10.1094H150.188V11.8125C150.188 13.0547 149.289 13.7656 147.781 13.7656C146.57 13.7656 145.82 13.3125 145.672 12.6719L145.664 12.6641H144.258L144.242 12.6719C144.453 14.0547 145.75 14.9688 147.781 14.9688ZM147.719 10.3594C146.156 10.3594 145.281 9.1875 145.281 7.51562V7.5C145.281 5.82812 146.156 4.63281 147.719 4.63281C149.273 4.63281 150.219 5.82812 150.219 7.5V7.51562C150.219 9.1875 149.281 10.3594 147.719 10.3594ZM157.5 12.1484C159.484 12.1484 160.688 11.0234 160.977 9.88281L160.992 9.82031H159.633L159.602 9.89062C159.375 10.3984 158.672 10.9375 157.531 10.9375C156.031 10.9375 155.07 9.92188 155.031 8.17969H161.094V7.64844C161.094 5.13281 159.703 3.42969 157.414 3.42969C155.125 3.42969 153.641 5.21094 153.641 7.8125V7.82031C153.641 10.4609 155.094 12.1484 157.5 12.1484ZM157.406 4.64062C158.648 4.64062 159.57 5.42969 159.711 7.09375H155.055C155.203 5.49219 156.156 4.64062 157.406 4.64062ZM163.203 12H164.562V6.78125C164.562 5.59375 165.398 4.63281 166.5 4.63281C167.562 4.63281 168.25 5.28125 168.25 6.28125V12H169.609V6.58594C169.609 5.51562 170.383 4.63281 171.555 4.63281C172.742 4.63281 173.312 5.25 173.312 6.49219V12H174.672V6.17969C174.672 4.41406 173.711 3.42969 171.992 3.42969C170.828 3.42969 169.867 4.01562 169.414 4.90625H169.289C168.898 4.03125 168.102 3.42969 166.961 3.42969C165.859 3.42969 165.062 3.95312 164.688 4.85938H164.562V3.57812H163.203V12Z" fill="#383D43"/>
</svg>
